<svg width="429" height="330" viewBox="0 0 429 330" fill="none" xmlns="http://www.w3.org/2000/svg">
<path d="M288.132 319.258L290.504 321.63C291.813 320.321 293.449 319.667 295.249 319.667C297.049 319.667 298.767 320.403 299.994 321.63L302.366 319.258C300.485 317.376 297.949 316.313 295.249 316.313C292.631 316.313 290.014 317.376 288.132 319.258Z" fill="#672ED6"/>
<path d="M284.205 315.331L286.578 317.704C288.868 315.413 291.977 314.104 295.331 314.104C298.603 314.104 301.712 315.413 304.084 317.704L306.457 315.331C303.511 312.386 299.585 310.75 295.331 310.75C291.077 310.75 287.15 312.305 284.205 315.331Z" fill="#672ED6"/>
<path d="M295.331 305.106C289.686 305.106 284.287 307.314 280.279 311.323L282.651 313.695C286.005 310.341 290.505 308.46 295.331 308.46C300.158 308.46 304.575 310.341 308.011 313.695L310.383 311.323C306.293 307.314 300.976 305.106 295.331 305.106Z" fill="#672ED6"/>
<path d="M295.331 321.63C293.777 321.63 292.468 322.939 292.468 324.494C292.468 326.048 293.777 327.357 295.331 327.357C296.885 327.357 298.194 326.048 298.194 324.494C298.194 322.939 296.885 321.63 295.331 321.63Z" fill="#672ED6"/>
<path d="M392.68 196.222V203.585" stroke="#672ED6" stroke-width="0.75" stroke-miterlimit="10" stroke-linecap="round" stroke-linejoin="round"/>
<path d="M388.999 199.903H396.361" stroke="#672ED6" stroke-width="0.75" stroke-miterlimit="10" stroke-linecap="round" stroke-linejoin="round"/>
<path d="M127.629 267.066V274.428" stroke="#DB7294" stroke-width="0.75" stroke-miterlimit="10" stroke-linecap="round" stroke-linejoin="round"/>
<path d="M123.948 270.747H131.311" stroke="#DB7294" stroke-width="0.75" stroke-miterlimit="10" stroke-linecap="round" stroke-linejoin="round"/>
<path d="M189.883 315.25V322.612" stroke="#DB7294" stroke-width="0.75" stroke-miterlimit="10" stroke-linecap="round" stroke-linejoin="round"/>
<path d="M186.202 318.931H193.565" stroke="#DB7294" stroke-width="0.75" stroke-miterlimit="10" stroke-linecap="round" stroke-linejoin="round"/>
<path d="M172.377 189.923V197.286" stroke="#EEDA36" stroke-width="0.75" stroke-miterlimit="10" stroke-linecap="round" stroke-linejoin="round"/>
<path d="M168.696 193.604H176.058" stroke="#EEDA36" stroke-width="0.75" stroke-miterlimit="10" stroke-linecap="round" stroke-linejoin="round"/>
<path d="M320.446 283.836V291.199" stroke="#EEDA36" stroke-width="0.75" stroke-miterlimit="10" stroke-linecap="round" stroke-linejoin="round"/>
<path d="M316.764 287.517H324.127" stroke="#EEDA36" stroke-width="0.75" stroke-miterlimit="10" stroke-linecap="round" stroke-linejoin="round"/>
<path d="M136.854 309.851C139.014 302.716 134.982 295.18 127.847 293.02C120.712 290.86 113.177 294.892 111.016 302.027C108.856 309.162 112.889 316.697 120.024 318.858C127.158 321.018 134.694 316.985 136.854 309.851Z" fill="#E4B0C8"/>
<path d="M132.047 300.279H116.258V312.141H132.047V300.279Z" stroke="white" stroke-miterlimit="10"/>
<path d="M116.258 300.279L124.112 307.56L132.047 300.279" stroke="white" stroke-miterlimit="10"/>
<path d="M189.883 163.5L192.174 167.508L194.465 171.517H189.883H185.302L187.593 167.508L189.883 163.5Z" fill="#D96980"/>
<path d="M389.326 280.646L394.643 285.309L399.879 289.89L393.253 292.18L386.626 294.389L387.935 287.517L389.326 280.646Z" stroke="#D96980" stroke-miterlimit="10"/>
<path d="M242.403 301.343C242.403 303.47 240.685 305.106 238.64 305.106C236.513 305.106 234.877 303.388 234.877 301.343C234.877 299.216 236.595 297.58 238.64 297.58C240.685 297.58 242.403 299.298 242.403 301.343Z" stroke="#D96980" stroke-miterlimit="10"/>
<path d="M272.344 199.494C272.344 201.376 270.789 202.848 268.99 202.848C267.108 202.848 265.636 201.294 265.636 199.494C265.636 197.613 267.19 196.14 268.99 196.14C270.789 196.14 272.344 197.613 272.344 199.494Z" fill="#D96980"/>
<path d="M381.391 318.522C381.391 320.403 379.837 321.876 378.037 321.876C376.155 321.876 374.683 320.322 374.683 318.522C374.683 316.64 376.237 315.168 378.037 315.168C379.918 315.086 381.391 316.64 381.391 318.522Z" fill="#D96980"/>
<path d="M279.543 268.457C279.543 269.602 278.643 270.502 277.497 270.502C276.352 270.502 275.452 269.602 275.452 268.457C275.452 267.311 276.352 266.412 277.497 266.412C278.643 266.412 279.543 267.311 279.543 268.457Z" fill="#E4B0C8"/>
<path d="M97.7701 253.813C100.391 253.813 102.515 251.689 102.515 249.069C102.515 246.448 100.391 244.324 97.7701 244.324C95.1497 244.324 93.0254 246.448 93.0254 249.069C93.0254 251.689 95.1497 253.813 97.7701 253.813Z" stroke="#672ED6" stroke-miterlimit="10"/>
<path d="M358.731 306.578C358.731 308.869 356.931 310.668 354.64 310.668C352.35 310.668 350.55 308.869 350.55 306.578C350.55 304.288 352.35 302.488 354.64 302.488C356.931 302.488 358.731 304.369 358.731 306.578Z" stroke="#672ED6" stroke-miterlimit="10"/>
<path d="M343.106 154.747C343.106 156.464 341.715 157.773 340.079 157.773C338.361 157.773 337.052 156.383 337.052 154.747C337.052 153.029 338.443 151.72 340.079 151.72C341.715 151.638 343.106 153.029 343.106 154.747Z" fill="#EEDA36"/>
<path d="M180.382 60.374C182.066 59.081 182.383 56.6674 181.09 54.9831C179.797 53.2987 177.384 52.9815 175.7 54.2745C174.015 55.5674 173.698 57.981 174.991 59.6654C176.284 61.3497 178.697 61.6669 180.382 60.374Z" stroke="#D7D4FC" stroke-miterlimit="10"/>
<path d="M150.617 246.451C112.168 246.451 81 216.837 81 180.352C81 154.583 96.5431 132.25 119.285 121.37" stroke="#C1C0FF" stroke-miterlimit="10" stroke-dasharray="4 4"/>
<path d="M300.976 261.749C303.839 287.599 284.369 310.914 257.537 313.859C230.705 316.804 206.736 298.234 203.872 272.383" stroke="#C1C0FF" stroke-miterlimit="10" stroke-dasharray="4 4"/>
<path d="M211.807 196.631C236.792 196.631 257.046 176.817 257.046 152.374C257.046 127.932 236.792 108.117 211.807 108.117C186.823 108.117 166.569 127.932 166.569 152.374C166.569 176.817 186.823 196.631 211.807 196.631Z" stroke="#C1C0FF" stroke-miterlimit="10" stroke-dasharray="4 4"/>
<path d="M255.328 290.79H150.371C146.117 290.79 142.763 287.354 142.763 283.182V215.61C142.763 211.356 146.199 208.002 150.371 208.002H255.328C259.582 208.002 262.936 211.438 262.936 215.61V283.182C262.936 287.354 259.582 290.79 255.328 290.79Z" fill="#B4AAF9"/>
<path d="M247.393 275.901H158.306C154.052 275.901 150.698 272.465 150.698 268.293V220.437C150.698 216.183 154.134 212.829 158.306 212.829H247.393C251.647 212.829 255.001 216.265 255.001 220.437V268.293C255.001 272.465 251.565 275.901 247.393 275.901Z" fill="white"/>
<path d="M181.866 241.624C181.866 241.624 176.222 259.458 187.756 263.385C199.291 267.312 200.6 264.039 203.218 270.257C205.754 276.392 216.061 273.774 217.043 264.285C218.025 254.795 211.071 255.531 207.39 255.041C203.709 254.55 201.336 247.842 201.336 244.406C201.418 240.888 183.175 234.344 181.866 241.624Z" fill="black"/>
<path d="M194.628 258.313C194.628 258.313 206.981 259.049 219.661 270.993C232.422 282.937 232.013 313.777 232.013 313.777L194.056 312.796L194.628 258.313Z" fill="white" stroke="black" stroke-miterlimit="10"/>
<path d="M207.717 268.539C216.225 274.92 233.568 312.714 228.087 312.878C222.606 313.041 156.916 312.469 154.871 310.423C152.825 308.378 161.742 290.381 161.742 290.381C161.742 290.381 175.567 261.994 196.919 261.831C204.036 261.749 198.637 261.749 207.717 268.539Z" fill="white"/>
<path d="M172.786 291.853C172.786 291.853 166.732 308.705 168.123 310.669C169.514 312.55 213.689 313.041 217.452 312.959C221.133 312.796 214.916 286.209 211.726 278.601" stroke="#1C191B" stroke-miterlimit="10"/>
<path d="M195.937 300.688C195.937 300.688 200.927 297.334 213.689 300.525C213.689 300.525 216.143 301.67 214.262 302.161C212.38 302.652 207.553 301.915 207.553 301.915C207.553 301.915 214.916 302.57 215.08 303.879C215.243 305.188 208.126 303.879 208.126 303.879C208.126 303.879 215.816 305.106 215.734 306.415C215.652 307.724 211.398 306.251 207.226 306.578C203.054 306.906 195.528 309.932 194.383 309.114C193.237 308.133 190.701 302.652 195.937 300.688Z" fill="white" stroke="#1C191B" stroke-miterlimit="10"/>
<path d="M191.765 258.313C184.075 258.395 175.731 260.767 167.55 267.393C156.425 276.474 137.609 304.861 145.872 319.586C154.052 334.229 173.031 328.584 179.576 325.557C186.12 322.612 198.964 312.796 200.354 308.787C201.991 304.042 201.254 300.77 195.364 299.298C189.474 297.825 167.714 300.116 163.542 302.897" fill="white"/>
<path d="M191.765 258.313C184.075 258.395 175.731 260.767 167.55 267.393C156.425 276.474 137.609 304.861 145.872 319.586C154.052 334.229 173.031 328.584 179.576 325.557C186.12 322.612 198.964 312.796 200.354 308.787C201.991 304.042 201.254 300.77 195.364 299.298C189.474 297.825 167.714 300.116 163.542 302.897" stroke="black" stroke-miterlimit="10"/>
<path d="M200.354 308.787C201.991 304.206 201.336 300.934 195.773 299.379C195.446 300.852 195.364 302.652 195.61 304.533C195.937 307.642 197.082 310.341 198.391 311.732C199.373 310.587 200.109 309.605 200.354 308.787Z" fill="#EEDA36" stroke="black" stroke-miterlimit="10"/>
<path d="M182.603 281.219C182.603 281.219 176.14 276.474 178.594 274.265C181.048 272.056 183.257 276.556 183.257 276.556C183.257 276.556 184.73 272.629 186.938 273.938C189.065 275.247 182.603 281.219 182.603 281.219Z" fill="#EEDA36" stroke="#1C191B" stroke-miterlimit="10"/>
<path d="M198.718 260.931C198.718 263.14 195.61 264.939 191.765 264.939C187.92 264.939 184.811 263.14 184.811 260.931C184.811 258.722 187.92 256.922 191.765 256.922C195.61 256.922 198.718 258.722 198.718 260.931Z" fill="#EEDA36" stroke="#1C191B" stroke-miterlimit="10"/>
<path d="M178.84 241.624C178.84 244.488 181.13 246.778 183.993 246.778C186.857 246.778 189.147 244.488 189.147 241.624C189.147 238.761 186.857 236.471 183.993 236.471C181.13 236.471 178.84 238.761 178.84 241.624Z" fill="white" stroke="black" stroke-miterlimit="10"/>
<path d="M200.355 226.654H194.219C190.129 226.654 186.857 230.417 186.857 235.08V244.57C186.857 244.815 186.857 245.06 186.857 245.388C186.775 245.633 186.775 245.96 186.775 246.287V252.014V252.341V258.067C186.775 260.194 188.493 261.831 190.538 261.831H192.992C195.119 261.831 196.755 260.113 196.755 258.067V252.996H200.273C204.363 252.996 207.635 249.232 207.635 244.57V235.08C207.717 230.417 204.363 226.654 200.355 226.654Z" fill="white" stroke="black" stroke-miterlimit="10"/>
<path d="M186.366 239.334C186.366 239.334 192.338 237.371 194.137 233.444C195.937 229.599 195.528 228.781 195.528 228.781C195.528 228.781 198.882 233.362 204.199 234.507C208.617 235.407 208.453 234.835 208.862 233.771C209.271 232.871 209.517 226.327 202.809 222.318C196.101 218.31 188.983 218.719 183.993 223.709C179.003 228.699 179.658 236.553 181.294 238.516C183.012 240.479 185.22 241.625 186.366 239.334Z" fill="black"/>
<path d="M189.819 216.201C190.577 212.991 188.59 209.775 185.38 209.017C182.17 208.259 178.954 210.247 178.196 213.456C177.438 216.666 179.426 219.882 182.635 220.64C185.845 221.398 189.061 219.411 189.819 216.201Z" fill="black"/>
<path d="M179.167 241.625C179.167 244.324 181.376 246.451 183.993 246.451C186.693 246.451 188.82 244.324 188.82 241.625C188.82 238.925 186.611 236.798 183.993 236.798C181.294 236.798 179.167 238.925 179.167 241.625Z" fill="white"/>
<path d="M186.611 242.279C186.611 242.279 186.857 239.007 183.503 239.334" stroke="#020202" stroke-miterlimit="10"/>
<path d="M196.837 239.497C197.605 239.497 198.228 238.875 198.228 238.107C198.228 237.339 197.605 236.716 196.837 236.716C196.069 236.716 195.446 237.339 195.446 238.107C195.446 238.875 196.069 239.497 196.837 239.497Z" fill="black"/>
<path d="M204.527 237.943C204.527 238.598 205.018 239.088 205.672 239.088C206.326 239.088 206.817 238.598 206.817 237.943C206.817 237.289 206.326 236.798 205.672 236.798C205.018 236.798 204.527 237.289 204.527 237.943Z" fill="black"/>
<path d="M203.218 243.588C203.218 243.588 202.563 245.633 201.091 245.715C199.618 245.878 198.473 244.242 198.391 242.933" stroke="#0C0C0C" stroke-miterlimit="10"/>
<path d="M190.702 243.179C190.702 245.06 192.256 246.615 194.137 246.615C196.019 246.615 197.573 245.06 197.573 243.179C197.573 241.297 196.019 239.743 194.137 239.743C192.256 239.743 190.702 241.297 190.702 243.179Z" fill="#E4B0C8"/>
<path d="M206.817 240.888C207.063 240.888 207.226 240.888 207.39 240.97V244.488C207.39 244.978 207.39 245.551 207.226 246.042C207.063 246.042 206.899 246.124 206.735 246.124C205.263 246.124 204.118 244.978 204.118 243.506C204.199 242.033 205.345 240.888 206.817 240.888Z" fill="#E4B0C8"/>
<path d="M201.664 236.798L201.336 241.461L203.627 240.07L201.664 236.798Z" fill="#DB7294"/>
<path d="M245.511 226.654H220.888C218.434 226.654 216.47 224.691 216.47 222.237C216.47 219.782 218.434 217.819 220.888 217.819H245.511C247.965 217.819 249.929 219.782 249.929 222.237C249.929 224.691 247.965 226.654 245.511 226.654Z" stroke="black" stroke-miterlimit="10"/>
<path d="M247.393 275.901H158.306C154.052 275.901 150.698 272.465 150.698 268.293V220.437C150.698 216.183 154.134 212.829 158.306 212.829H247.393C251.647 212.829 255.001 216.265 255.001 220.437V268.293C255.001 272.465 251.565 275.901 247.393 275.901Z" stroke="black" stroke-miterlimit="10"/>
<path d="M205.754 283.1C205.754 284.245 205.017 285.309 203.954 285.718C202.809 286.127 201.582 285.8 200.845 284.818C200.109 283.918 200.027 282.609 200.6 281.627C201.173 280.646 202.318 280.155 203.463 280.319C204.772 280.646 205.754 281.791 205.754 283.1C205.754 283.754 206.817 283.754 206.735 283.1C206.735 281.546 205.754 280.073 204.281 279.582C202.809 279.01 201.091 279.501 200.027 280.728C199.046 281.955 198.882 283.754 199.7 285.063C200.518 286.454 202.154 287.108 203.709 286.863C205.508 286.536 206.735 284.9 206.817 283.182C206.817 282.446 205.754 282.446 205.754 283.1Z" fill="black"/>
<path d="M379.673 267.884H290.586C286.987 267.884 284.124 264.939 284.124 261.421V204.076C284.124 200.476 287.069 197.613 290.586 197.613H379.673C383.272 197.613 386.135 200.558 386.135 204.076V261.421C386.217 264.939 383.272 267.884 379.673 267.884Z" fill="#B4AAF9"/>
<path d="M337.543 261.34C337.543 262.239 336.97 263.139 336.07 263.467C335.17 263.794 334.107 263.548 333.534 262.73C332.962 261.994 332.88 260.931 333.371 260.113C333.862 259.294 334.761 258.885 335.743 259.049C336.725 259.294 337.543 260.276 337.543 261.34C337.543 261.994 338.606 261.994 338.525 261.34C338.525 259.949 337.625 258.722 336.398 258.231C335.089 257.74 333.616 258.149 332.716 259.213C331.816 260.276 331.653 261.83 332.389 262.976C333.125 264.203 334.516 264.775 335.825 264.53C337.379 264.285 338.443 262.812 338.525 261.258C338.606 260.685 337.543 260.685 337.543 261.34Z" fill="black"/>
<path d="M372.965 255.286H297.376C293.777 255.286 290.913 252.341 290.913 248.823V208.166C290.913 204.566 293.858 201.703 297.376 201.703H372.965C376.564 201.703 379.427 204.648 379.427 208.166V248.823C379.427 252.341 376.482 255.286 372.965 255.286Z" fill="white"/>
<path d="M282.078 253.977C282.078 253.977 295.413 241.215 309.729 238.597C323.963 235.98 352.431 236.225 367.893 256.595C383.354 276.964 345.396 295.043 344.333 295.207C343.269 295.371 281.669 285.063 279.379 283.263C277.088 281.464 268.09 270.829 282.078 253.977Z" fill="#672ED6" stroke="black" stroke-width="0.909" stroke-miterlimit="10"/>
<path d="M340.161 243.424C340.161 243.424 363.23 289.726 358.076 298.643C352.922 307.478 314.719 315.904 295.658 306.251C273.325 294.962 302.693 248.005 309.647 237.207L340.161 243.424Z" fill="#672ED6" stroke="black" stroke-width="0.909" stroke-miterlimit="10"/>
<path d="M304.411 253.977C304.411 256.922 306.784 259.294 309.729 259.294C312.674 259.294 315.046 256.922 315.046 253.977C315.046 251.032 312.674 248.66 309.729 248.66C306.702 248.66 304.411 251.032 304.411 253.977Z" fill="white"/>
<path d="M372.965 255.286H297.376C293.777 255.286 290.913 252.341 290.913 248.823V208.166C290.913 204.566 293.858 201.703 297.376 201.703H372.965C376.564 201.703 379.427 204.648 379.427 208.166V248.823C379.427 252.341 376.482 255.286 372.965 255.286Z" stroke="black" stroke-miterlimit="10"/>
<path d="M343.394 240.827C344.072 234.22 336.314 228.013 326.066 226.962C315.819 225.911 306.962 230.415 306.285 237.022C305.608 243.629 313.366 249.837 323.613 250.888C333.861 251.939 342.717 247.434 343.394 240.827Z" fill="#672ED6" stroke="black" stroke-width="0.9716" stroke-miterlimit="10"/>
<path d="M315.046 220.6C315.046 223.3 317.255 225.427 319.954 225.427C322.654 225.427 324.863 223.3 324.863 220.6C324.863 217.901 322.654 215.774 319.954 215.774C317.173 215.774 315.046 217.901 315.046 220.6Z" stroke="black" stroke-width="1.8801" stroke-miterlimit="10"/>
<path d="M336.234 205.63H330.098C326.008 205.63 322.736 209.393 322.736 214.056V223.545C322.736 223.791 322.736 224.036 322.736 224.363C322.654 224.609 322.654 224.936 322.654 225.263V231.071V231.399V237.207C322.654 239.334 324.372 241.052 326.499 241.052H328.953C331.08 241.052 332.798 239.334 332.798 237.207V232.053H336.316C340.406 232.053 343.678 228.29 343.678 223.627V214.138C343.678 209.393 340.324 205.63 336.234 205.63Z" fill="white" stroke="black" stroke-width="0.94" stroke-miterlimit="10"/>
<path d="M331.407 217.164C331.407 217.901 332.062 218.555 332.798 218.555C333.534 218.555 334.189 217.901 334.189 217.164C334.189 216.428 333.534 215.774 332.798 215.774C332.062 215.774 331.407 216.346 331.407 217.164Z" fill="#0C0C0C"/>
<path d="M340.406 216.919C340.406 217.574 340.897 218.064 341.551 218.064C342.206 218.064 342.696 217.574 342.696 216.919C342.696 216.265 342.206 215.774 341.551 215.774C340.897 215.774 340.406 216.265 340.406 216.919Z" fill="#0C0C0C"/>
<path d="M339.097 222.564C339.097 222.564 338.442 224.609 336.97 224.691C335.497 224.773 334.352 223.218 334.27 221.909L339.097 222.564Z" fill="#FFF7F7"/>
<path d="M338.688 222.482C338.688 222.564 338.688 222.564 338.606 222.645C338.688 222.482 338.606 222.727 338.524 222.727C338.524 222.809 338.442 222.891 338.442 222.973C338.279 223.382 338.033 223.627 337.706 223.954C337.379 224.282 336.97 224.445 336.479 224.363C335.988 224.282 335.579 223.954 335.252 223.627C334.925 223.218 334.598 222.645 334.598 222.073C334.434 222.236 334.352 222.318 334.189 222.482C335.579 222.645 337.052 222.809 338.442 222.973C338.606 222.973 338.851 223.055 339.015 223.055C339.261 223.055 339.424 222.809 339.424 222.645C339.424 222.4 339.261 222.236 339.015 222.236C337.624 222.073 336.152 221.909 334.761 221.746C334.598 221.746 334.352 221.664 334.189 221.664C333.943 221.664 333.78 221.909 333.78 222.073C333.861 223.382 334.761 224.772 336.07 225.181C337.297 225.59 338.442 224.772 339.015 223.709C339.179 223.382 339.342 223.136 339.424 222.809C339.751 222.155 338.933 221.909 338.688 222.482Z" fill="#0C0C0C"/>
<path d="M326.581 222.236C326.581 224.118 328.135 225.672 330.017 225.672C331.898 225.672 333.452 224.118 333.452 222.236C333.452 220.355 331.898 218.801 330.017 218.801C328.135 218.801 326.581 220.355 326.581 222.236Z" fill="#E4B0C8"/>
<path d="M342.778 219.864C343.024 219.864 343.187 219.864 343.351 219.946V223.545C343.351 224.118 343.351 224.609 343.187 225.1C343.024 225.1 342.86 225.181 342.697 225.181C341.224 225.181 340.079 224.036 340.079 222.564C340.161 221.091 341.306 219.864 342.778 219.864Z" fill="#E4B0C8"/>
<path d="M337.543 215.774L337.297 220.437L339.506 219.128L337.543 215.774Z" fill="#DB7294"/>
<path d="M324.372 220.437L325.517 212.992C325.517 212.992 346.051 215.61 352.759 205.548C359.467 195.568 352.431 191.559 348.996 192.132C345.56 192.705 341.633 197.531 341.633 197.531C341.633 197.531 344.823 193.195 341.633 192.541C338.443 191.887 335.007 195.159 333.207 198.513C333.207 198.513 319.627 197.286 315.046 205.466C310.465 213.647 314.146 219.455 322.572 227.963L323.145 223.218L324.372 220.437Z" fill="black"/>
<path d="M315.046 220.6C315.046 223.3 317.255 225.427 319.954 225.427C322.654 225.427 324.863 223.3 324.863 220.6C324.863 217.901 322.654 215.774 319.954 215.774C317.173 215.774 315.046 217.901 315.046 220.6Z" fill="white"/>
<path d="M323.063 221.255C323.063 220.846 322.981 220.355 322.899 220.028C322.654 219.21 322.163 218.473 321.345 218.146C320.691 217.819 320.036 217.819 319.3 217.901C319.055 217.901 318.727 218.146 318.809 218.392C318.809 218.637 319.055 218.964 319.3 218.882C319.627 218.882 319.873 218.882 320.2 218.882H320.282C320.282 218.882 320.2 218.882 320.282 218.882C320.363 218.882 320.364 218.882 320.445 218.882C320.527 218.882 320.691 218.964 320.773 218.964C320.936 219.046 320.691 218.882 320.773 218.964C320.854 218.964 320.854 219.046 320.936 219.046L321.182 219.21C321.182 219.21 321.1 219.128 321.182 219.21C321.182 219.21 321.182 219.21 321.263 219.291L321.345 219.373C321.427 219.455 321.427 219.537 321.509 219.537C321.427 219.455 321.427 219.455 321.509 219.537L321.591 219.619C321.672 219.7 321.672 219.782 321.754 219.864C321.754 219.864 321.754 219.946 321.836 219.946C321.836 220.028 321.754 219.782 321.836 219.864C321.836 219.864 321.836 219.864 321.836 219.946C321.836 220.028 321.918 220.109 321.918 220.191C321.918 220.355 322 220.437 322 220.6V220.682C322 220.764 322 220.518 322 220.682C322 220.764 322 220.764 322 220.846C322 221.009 322 221.091 322 221.255C322 221.5 322.245 221.827 322.49 221.746C322.818 221.746 323.063 221.582 323.063 221.255Z" fill="#020202"/>
<path d="M333.125 198.676C333.125 198.676 319.545 212.665 313.983 216.919C313.983 216.919 306.702 200.721 310.792 196.222C314.146 192.623 330.426 194.75 333.125 198.676Z" fill="#EEDA36" stroke="black" stroke-width="0.94" stroke-miterlimit="10"/>
<path d="M328.708 196.059L312.183 212.338" stroke="black" stroke-width="0.94" stroke-miterlimit="10"/>
<path d="M336.97 233.444L339.179 241.624L322.409 246.942L321.509 243.506L315.292 239.825L317.828 232.871L325.108 238.597L325.599 239.007C325.599 239.007 325.845 239.497 327.235 238.679C328.708 238.025 336.97 233.444 336.97 233.444Z" fill="#672ED6"/>
<path d="M337.543 233.116L321.591 241.87L321.509 243.997" stroke="black" stroke-width="0.94" stroke-miterlimit="10"/>
<path d="M317.5 232.953L326.253 239.416" stroke="black" stroke-width="0.94" stroke-miterlimit="10"/>
<path d="M317.5 242.524C317.5 242.524 306.211 249.968 298.521 247.023" stroke="black" stroke-width="0.94" stroke-miterlimit="10"/>
<path d="M317.255 243.67C317.933 243.67 318.482 243.12 318.482 242.442C318.482 241.765 317.933 241.215 317.255 241.215C316.577 241.215 316.028 241.765 316.028 242.442C316.028 243.12 316.577 243.67 317.255 243.67Z" stroke="black" stroke-width="0.94" stroke-miterlimit="10"/>
<path d="M331.653 245.306C331.653 246.042 332.225 246.615 332.962 246.615C333.698 246.615 334.271 246.042 334.271 245.306C334.271 244.569 333.698 243.997 332.962 243.997C332.225 243.997 331.653 244.569 331.653 245.306Z" stroke="black" stroke-width="0.94" stroke-miterlimit="10"/>
<path d="M332.962 245.306C332.962 245.306 337.543 258.558 345.642 262.485" stroke="black" stroke-width="0.94" stroke-miterlimit="10"/>
<path d="M408.06 140.84H370.265C365.439 140.84 361.512 144.766 361.512 149.593V164.972V170.372V187.224L370.429 179.043H408.06C412.886 179.043 416.813 175.116 416.813 170.29V149.511C416.813 144.766 412.886 140.84 408.06 140.84Z" fill="white" stroke="black" stroke-miterlimit="10"/>
<path d="M380.491 160.719C380.491 162.845 378.773 164.482 376.728 164.482C374.683 164.482 372.965 162.764 372.965 160.719C372.965 158.673 374.683 156.955 376.728 156.955C378.773 156.955 380.491 158.592 380.491 160.719Z" fill="white" stroke="black" stroke-miterlimit="10"/>
<path d="M393.744 160.719C393.744 162.845 392.026 164.482 389.981 164.482C387.935 164.482 386.218 162.764 386.218 160.719C386.218 158.673 387.935 156.955 389.981 156.955C392.026 156.955 393.744 158.592 393.744 160.719Z" fill="white" stroke="black" stroke-miterlimit="10"/>
<path d="M406.914 160.719C406.914 162.845 405.196 164.482 403.151 164.482C401.106 164.482 399.388 162.764 399.388 160.719C399.388 158.673 401.106 156.955 403.151 156.955C405.196 156.955 406.914 158.592 406.914 160.719Z" fill="white" stroke="black" stroke-miterlimit="10"/>
<path d="M418.94 128.405H381.146C376.319 128.405 372.392 132.332 372.392 137.158V152.538V157.937V174.789L381.309 166.609H418.94C423.766 166.609 427.693 162.682 427.693 157.855V137.077C427.693 132.332 423.766 128.405 418.94 128.405Z" fill="white" stroke="black" stroke-miterlimit="10"/>
<path d="M391.371 148.285C391.371 150.412 389.653 152.048 387.608 152.048C385.563 152.048 383.845 150.33 383.845 148.285C383.845 146.24 385.563 144.522 387.608 144.522C389.653 144.522 391.371 146.158 391.371 148.285Z" fill="white" stroke="black" stroke-miterlimit="10"/>
<path d="M404.624 148.284C404.624 150.411 402.906 152.047 400.861 152.047C398.734 152.047 397.098 150.329 397.098 148.284C397.098 146.239 398.815 144.521 400.861 144.521C402.906 144.439 404.624 146.157 404.624 148.284Z" fill="white" stroke="black" stroke-miterlimit="10"/>
<path d="M417.794 148.284C417.794 150.411 416.077 152.047 414.031 152.047C411.904 152.047 410.268 150.329 410.268 148.284C410.268 146.239 411.986 144.521 414.031 144.521C416.158 144.439 417.794 146.157 417.794 148.284Z" fill="white" stroke="black" stroke-miterlimit="10"/>
<path d="M308.445 64.7021L311.236 67.4927C312.775 65.953 314.7 65.1832 316.817 65.1832C318.934 65.1832 320.954 66.0493 322.398 67.4927L325.188 64.7021C322.975 62.4889 319.992 61.2379 316.817 61.2379C313.737 61.2379 310.754 62.4889 308.445 64.7021Z" stroke="#672ED6" stroke-miterlimit="10"/>
<path d="M303.826 60.0833L306.617 62.8739C309.311 60.1795 312.968 58.6399 316.913 58.6399C320.762 58.6399 324.419 60.1795 327.209 62.8739L330 60.0833C326.536 56.6191 321.917 54.6946 316.913 54.6946C312.005 54.6946 307.29 56.6191 303.826 60.0833Z" stroke="#672ED6" stroke-miterlimit="10"/>
<path d="M316.913 48.0548C310.273 48.0548 303.922 50.6529 299.207 55.3681L301.998 58.1586C305.943 54.2133 311.235 52.0001 316.913 52.0001C322.59 52.0001 327.786 54.2133 331.828 58.1586L334.619 55.3681C329.807 50.6529 323.552 48.0548 316.913 48.0548Z" stroke="#672ED6" stroke-miterlimit="10"/>
<path d="M316.913 74.2284C318.773 74.2284 320.281 72.7206 320.281 70.8605C320.281 69.0004 318.773 67.4926 316.913 67.4926C315.053 67.4926 313.545 69.0004 313.545 70.8605C313.545 72.7206 315.053 74.2284 316.913 74.2284Z" stroke="#672ED6" stroke-miterlimit="10"/>
<path d="M241.471 59.9869V68.6474" stroke="#DB7294" stroke-width="0.75" stroke-miterlimit="10" stroke-linecap="round" stroke-linejoin="round"/>
<path d="M237.141 64.3171H245.801" stroke="#DB7294" stroke-width="0.75" stroke-miterlimit="10" stroke-linecap="round" stroke-linejoin="round"/>
<path d="M63.4513 26.4039V35.0644" stroke="#672ED6" stroke-width="0.75" stroke-miterlimit="10" stroke-linecap="round" stroke-linejoin="round"/>
<path d="M59.121 30.734H67.7814" stroke="#672ED6" stroke-width="0.75" stroke-miterlimit="10" stroke-linecap="round" stroke-linejoin="round"/>
<path d="M202.21 65.8568C203.858 65.8568 205.193 64.5213 205.193 62.8738C205.193 61.2263 203.858 59.8907 202.21 59.8907C200.563 59.8907 199.227 61.2263 199.227 62.8738C199.227 64.5213 200.563 65.8568 202.21 65.8568Z" stroke="#EEDA36" stroke-width="0.75" stroke-miterlimit="10" stroke-linecap="round" stroke-linejoin="round"/>
<path d="M226.171 47.5737C231.751 47.5737 236.275 43.0501 236.275 37.4699C236.275 31.8897 231.751 27.3661 226.171 27.3661C220.591 27.3661 216.067 31.8897 216.067 37.4699C216.067 43.0501 220.591 47.5737 226.171 47.5737Z" fill="#E4B0C8"/>
<path d="M232.233 33.2358H220.397V42.0887H232.233V33.2358Z" stroke="white" stroke-miterlimit="10"/>
<path d="M220.397 33.2358L226.267 38.6245L232.233 33.2358" stroke="white" stroke-miterlimit="10"/>
<path d="M16.8774 26.5963L14.7604 34.5831L12.6435 42.57L6.77361 36.7001L1 30.8303L8.98683 28.7133L16.8774 26.5963Z" stroke="#D96980" stroke-miterlimit="10"/>
<path d="M349.919 16.1077C349.919 19.5718 347.128 22.3624 343.664 22.3624C340.2 22.3624 337.409 19.5718 337.409 16.1077C337.409 12.6435 340.2 9.85291 343.664 9.85291C347.128 9.85291 349.919 12.6435 349.919 16.1077Z" stroke="#D96980" stroke-miterlimit="10"/>
<path d="M27.0776 81.0607C27.0776 81.0607 26.0191 88.3739 21.0153 89.1437C16.0115 89.9135 11.4888 89.5286 14.2794 102.134" stroke="#EEDA36" stroke-miterlimit="10"/>
<path d="M270.243 18.5131C270.243 18.5131 278.23 17.7433 280.347 22.7471C282.464 27.7509 283.234 32.6584 295.839 26.4999" stroke="#EEDA36" stroke-miterlimit="10"/>
<path d="M325.188 110.121C356.012 110.121 381 85.6937 381 55.5606C381 25.4276 356.012 1 325.188 1C294.365 1 269.377 25.4276 269.377 55.5606C269.377 85.6937 294.365 110.121 325.188 110.121Z" stroke="#C1C0FF" stroke-miterlimit="10" stroke-dasharray="4 4"/>
<path d="M286.794 161.122H182.965C178.827 161.122 175.363 157.754 175.363 153.52V86.6421C175.363 82.5043 178.731 79.0402 182.965 79.0402H286.794C290.932 79.0402 294.396 82.4081 294.396 86.6421V153.52C294.396 157.754 291.028 161.122 286.794 161.122Z" fill="#B4AAF9"/>
<path d="M279 146.399H190.856C186.718 146.399 183.254 143.031 183.254 138.797V91.4532C183.254 87.3155 186.622 83.8513 190.856 83.8513H279C283.137 83.8513 286.601 87.2193 286.601 91.4532V138.797C286.505 143.031 283.137 146.399 279 146.399Z" fill="white" stroke="black" stroke-miterlimit="10"/>
<path d="M210.39 146.399H258.214C253.403 139.855 244.454 135.429 234.254 135.429C224.15 135.429 215.201 139.855 210.39 146.399Z" fill="#DB7294" stroke="black" stroke-miterlimit="10"/>
<path d="M234.927 141.395C239.285 141.395 242.818 139.327 242.818 136.776C242.818 134.225 239.285 132.157 234.927 132.157C230.57 132.157 227.037 134.225 227.037 136.776C227.037 139.327 230.57 141.395 234.927 141.395Z" fill="black" stroke="#1C191B" stroke-miterlimit="10"/>
<path d="M220.301 114.836C220.301 118.012 222.899 120.61 226.171 120.61C229.346 120.61 232.041 118.012 232.041 114.836C232.041 111.661 229.443 109.063 226.171 109.063C222.899 109.063 220.301 111.661 220.301 114.836Z" fill="white" stroke="black" stroke-miterlimit="10"/>
<path d="M244.55 97.9968H237.718C233.099 97.9968 229.346 102.231 229.346 107.523V118.204C229.346 118.493 229.346 118.782 229.346 119.071C229.25 119.359 229.25 119.744 229.25 120.033V126.576V126.961V133.505C229.25 135.91 231.175 137.835 233.58 137.835H236.275C238.68 137.835 240.605 135.91 240.605 133.505V127.731H244.55C249.169 127.731 252.922 123.497 252.922 118.204V107.523C252.922 102.231 249.169 97.9968 244.55 97.9968Z" fill="white" stroke="black" stroke-miterlimit="10"/>
<path d="M228.769 112.238C228.769 112.238 235.505 110.025 237.622 105.599C239.643 101.268 239.161 100.306 239.161 100.306C239.161 100.306 243.01 105.502 248.977 106.85C253.98 107.908 253.788 107.138 254.269 105.984C254.75 104.925 255.039 97.5156 247.437 92.9929C239.931 88.4703 231.752 88.9514 226.171 94.5326C220.59 100.21 221.263 109.063 223.091 111.276C225.016 113.585 227.518 114.836 228.769 112.238Z" fill="black"/>
<path d="M208.369 86.4495C208.369 86.4495 205.482 86.8344 205.001 91.4533C204.616 96.0721 201.633 101.653 195.282 103C188.931 104.348 173.535 104.251 172.861 88.5665C172.188 72.8815 189.797 69.4173 195.378 75.0947C199.324 79.04 200.478 79.4249 202.884 74.806C205.29 70.1871 212.988 66.338 220.301 73.0739C227.614 79.8098 222.322 87.3155 218.761 88.4702C215.201 89.4325 210.871 84.4287 208.369 86.4495Z" stroke="black" stroke-miterlimit="10"/>
<path d="M226.556 91.7422C228.203 91.7422 229.539 90.4066 229.539 88.7592C229.539 87.1117 228.203 85.7761 226.556 85.7761C224.908 85.7761 223.573 87.1117 223.573 88.7592C223.573 90.4066 224.908 91.7422 226.556 91.7422Z" fill="#DB7294" stroke="black" stroke-miterlimit="10"/>
<path d="M220.686 114.836C220.686 117.82 223.188 120.321 226.171 120.321C229.25 120.321 231.656 117.916 231.656 114.836C231.656 111.853 229.154 109.352 226.171 109.352C223.092 109.448 220.686 111.853 220.686 114.836Z" fill="white"/>
<path d="M229.154 115.606C229.154 115.606 229.443 111.95 225.594 112.335" stroke="#020202" stroke-miterlimit="10"/>
<path d="M239.162 110.987C239.162 111.853 239.835 112.527 240.701 112.527C241.567 112.527 242.241 111.853 242.241 110.987C242.241 110.121 241.567 109.448 240.701 109.448C239.835 109.448 239.162 110.121 239.162 110.987Z" fill="#0C0C0C"/>
<path d="M249.265 110.699C249.265 111.469 249.843 112.046 250.613 112.046C251.382 112.046 251.96 111.469 251.96 110.699C251.96 109.929 251.382 109.352 250.613 109.352C249.939 109.448 249.265 110.025 249.265 110.699Z" fill="#0C0C0C"/>
<path d="M247.822 117.146C247.822 117.146 247.052 119.455 245.416 119.552C243.78 119.744 242.433 117.916 242.337 116.472L247.822 117.146Z" fill="#FFF7F7" stroke="#0C0C0C" stroke-miterlimit="10"/>
<path d="M233.677 116.665C233.677 118.782 235.409 120.514 237.526 120.514C239.643 120.514 241.375 118.782 241.375 116.665C241.375 114.548 239.643 112.816 237.526 112.816C235.409 112.816 233.677 114.548 233.677 116.665Z" fill="#E4B0C8"/>
<path d="M251.864 114.067C252.056 114.067 252.345 114.067 252.537 114.163V118.205C252.537 118.782 252.537 119.359 252.441 119.937C252.249 119.937 252.056 120.033 251.864 120.033C250.228 120.033 248.881 118.686 248.881 117.05C248.977 115.414 250.228 114.067 251.864 114.067Z" fill="#E4B0C8"/>
<path d="M246.09 109.448L245.705 114.74L248.303 113.201L246.09 109.448Z" fill="#DB7294"/>
<path d="M237.718 153.52C237.718 154.578 237.044 155.637 235.986 156.022C234.927 156.407 233.677 156.118 233.003 155.156C232.329 154.29 232.233 153.039 232.81 152.173C233.388 151.21 234.446 150.729 235.505 150.922C236.756 151.114 237.718 152.269 237.718 153.52C237.718 154.29 238.969 154.29 238.873 153.52C238.873 151.884 237.814 150.44 236.371 149.863C234.928 149.286 233.099 149.767 232.137 151.018C231.078 152.269 230.982 154.097 231.752 155.444C232.618 156.888 234.254 157.561 235.794 157.273C237.622 156.984 238.873 155.252 238.873 153.52C238.969 152.75 237.718 152.75 237.718 153.52Z" fill="black"/>
<path d="M151.595 124.844H47.7662C43.6285 124.844 40.1643 121.476 40.1643 117.242V50.4607C40.1643 46.3229 43.5322 42.8588 47.7662 42.8588H151.595C155.733 42.8588 159.197 46.2267 159.197 50.4607V117.338C159.197 121.476 155.829 124.844 151.595 124.844Z" fill="#B4AAF9"/>
<path d="M102.519 117.338C102.519 118.397 101.846 119.455 100.787 119.84C99.7286 120.225 98.4777 119.937 97.8041 118.974C97.1305 118.108 97.0343 116.857 97.6117 115.991C98.189 115.029 99.2475 114.548 100.306 114.74C101.557 114.933 102.519 115.991 102.519 117.338C102.519 118.108 103.77 118.108 103.674 117.338C103.674 115.703 102.615 114.259 101.172 113.682C99.7286 113.104 97.9003 113.586 96.9381 114.837C95.8796 116.088 95.7833 117.916 96.5532 119.263C97.4192 120.706 99.0551 121.38 100.595 121.091C102.423 120.803 103.674 119.071 103.674 117.338C103.77 116.569 102.519 116.569 102.519 117.338Z" fill="black"/>
<path d="M143.801 110.218H55.6567C51.519 110.218 48.0548 106.85 48.0548 102.616V55.2721C48.0548 51.1343 51.4227 47.6702 55.6567 47.6702H143.801C147.938 47.6702 151.402 51.0381 151.402 55.2721V102.616C151.306 106.753 147.938 110.218 143.801 110.218Z" fill="white"/>
<path d="M85.006 93.5706C65.6644 93.5706 49.9794 113.297 49.9794 137.642H120.033C120.033 113.297 104.348 93.5706 85.006 93.5706Z" fill="white" stroke="black" stroke-miterlimit="10"/>
<path d="M74.1323 104.156C74.1323 105.503 72.9776 106.657 71.6304 106.657C70.2833 106.657 69.1285 105.503 69.1285 104.156C69.1285 102.808 70.2833 101.654 71.6304 101.654C72.9776 101.654 74.1323 102.808 74.1323 104.156Z" fill="#EEDA36"/>
<path d="M84.0438 116.28C85.5849 116.28 86.8343 115.031 86.8343 113.489C86.8343 111.948 85.5849 110.699 84.0438 110.699C82.5026 110.699 81.2532 111.948 81.2532 113.489C81.2532 115.031 82.5026 116.28 84.0438 116.28Z" fill="#EEDA36"/>
<path d="M97.2268 104.156C97.2268 105.503 96.0721 106.657 94.7249 106.657C93.3777 106.657 92.223 105.503 92.223 104.156C92.223 102.808 93.3777 101.654 94.7249 101.654C96.0721 101.654 97.2268 102.808 97.2268 104.156Z" fill="#EEDA36"/>
<path d="M106.849 112.816C108.019 112.816 108.966 111.868 108.966 110.699C108.966 109.53 108.019 108.582 106.849 108.582C105.68 108.582 104.732 109.53 104.732 110.699C104.732 111.868 105.68 112.816 106.849 112.816Z" fill="#EEDA36"/>
<path d="M65.4718 115.029C65.4718 116.472 64.317 117.627 62.8736 117.627C61.4302 117.627 60.2755 116.472 60.2755 115.029C60.2755 113.586 61.4302 112.431 62.8736 112.431C64.317 112.431 65.4718 113.586 65.4718 115.029Z" fill="#EEDA36"/>
<path d="M74.0362 125.325C75.5774 125.325 76.8268 124.076 76.8268 122.535C76.8268 120.994 75.5774 119.744 74.0362 119.744C72.495 119.744 71.2456 120.994 71.2456 122.535C71.2456 124.076 72.495 125.325 74.0362 125.325Z" fill="#EEDA36"/>
<path d="M99.7288 124.363C101.004 124.363 102.038 123.329 102.038 122.054C102.038 120.778 101.004 119.744 99.7288 119.744C98.4533 119.744 97.4193 120.778 97.4193 122.054C97.4193 123.329 98.4533 124.363 99.7288 124.363Z" fill="#EEDA36"/>
<path d="M113.489 126.576C113.489 127.827 112.527 128.79 111.276 128.79C110.025 128.79 109.063 127.827 109.063 126.576C109.063 125.325 110.025 124.363 111.276 124.363C112.431 124.363 113.489 125.325 113.489 126.576Z" fill="#EEDA36"/>
<path d="M62.4888 127.635C62.4888 128.982 61.4303 130.04 60.0832 130.04C58.736 130.04 57.6775 128.982 57.6775 127.635C57.6775 126.287 58.736 125.229 60.0832 125.229C61.4303 125.325 62.4888 126.384 62.4888 127.635Z" fill="#EEDA36"/>
<path d="M89.8173 130.04C89.8173 131.388 88.7588 132.446 87.4117 132.446C86.0645 132.446 85.006 131.388 85.006 130.04C85.006 128.693 86.0645 127.635 87.4117 127.635C88.7588 127.635 89.8173 128.693 89.8173 130.04Z" fill="#EEDA36"/>
<path d="M122.727 114.74L123.4 112.431C123.4 112.431 123.497 111.757 122.534 111.469C121.668 111.084 107.812 105.791 107.812 105.791C107.812 105.791 106.657 105.118 106.272 105.984C105.983 106.85 103.674 110.603 103.674 110.603C103.674 110.603 103 111.565 103.77 111.95C104.54 112.431 117.049 117.05 117.049 117.05L120.225 118.397C120.225 118.397 121.187 118.782 121.38 118.301C121.765 117.82 122.727 114.74 122.727 114.74Z" fill="#672ED6"/>
<path d="M126.576 98.2855C126.576 98.2855 127.827 91.8383 126.768 90.6836C125.71 89.5288 124.748 90.7798 124.267 92.4156C123.785 94.0515 122.919 97.1308 122.919 97.1308L119.744 90.6836C119.744 90.6836 126.865 85.4873 127.153 84.525C127.442 83.5628 127.442 82.8892 126.961 82.8892C126.48 82.8892 124.94 83.2741 124.94 83.2741C124.94 83.2741 127.346 80.9646 126.576 80.0986C125.806 79.2326 123.208 81.1571 123.208 81.1571C123.208 81.1571 124.17 77.5967 123.689 76.9231C123.304 76.2495 120.321 80.291 119.551 81.7345C118.782 83.2741 117.338 85.6798 117.338 85.6798C117.338 85.6798 116.376 86.4496 116.376 86.8345C116.376 87.2194 115.221 88.0854 115.029 88.2779C114.836 88.4703 113.393 91.4534 112.046 94.6289C110.699 97.7081 108.678 101.942 108.678 101.942L107.716 103.867C107.716 103.867 106.657 105.406 108.87 106.08C111.083 106.753 119.84 110.314 119.84 110.314L122.631 111.372C122.631 111.372 123.497 112.527 124.17 109.833C124.844 107.235 126.576 98.2855 126.576 98.2855Z" fill="white"/>
<path d="M121.091 119.744C125.902 106.272 127.923 92.127 126.768 90.6836C125.132 88.6628 124.17 92.127 122.919 97.0345L119.744 90.5873C119.744 90.5873 127.442 85.3911 127.442 83.2741C127.442 81.1571 115.317 87.1232 114.259 89.3364C113.585 90.7798 109.448 102.327 102.519 112.335" stroke="black" stroke-miterlimit="10"/>
<path d="M124.266 83.4666C124.266 83.4666 127.442 81.4458 126.672 80.0986C125.902 78.7515 116.28 85.5836 116.472 87.3157" stroke="black" stroke-miterlimit="10"/>
<path d="M123.015 81.3496C123.015 81.3496 125.036 77.4043 123.881 76.9231C122.727 76.442 118.685 82.9854 118.204 85.0062" stroke="black" stroke-miterlimit="10"/>
<path d="M123.593 111.853L106.946 105.406" stroke="black" stroke-miterlimit="10"/>
<path d="M121.476 118.782L103.385 111.276" stroke="black" stroke-miterlimit="10"/>
<path d="M121.476 110.987L118.878 117.723" stroke="black" stroke-miterlimit="10"/>
<path d="M118.3 109.736L115.702 116.376" stroke="black" stroke-miterlimit="10"/>
<path d="M115.221 108.486L112.719 115.029" stroke="black" stroke-miterlimit="10"/>
<path d="M111.949 107.235L109.64 113.778" stroke="black" stroke-miterlimit="10"/>
<path d="M109.159 106.272L106.368 112.527" stroke="black" stroke-miterlimit="10"/>
<path d="M71.2456 73.844C71.2456 76.7308 73.6513 79.1365 76.5381 79.1365C79.4249 79.1365 81.8306 76.827 81.8306 73.844C81.8306 70.9572 79.4249 68.5515 76.5381 68.5515C73.6513 68.6477 71.2456 70.9572 71.2456 73.844Z" stroke="black" stroke-width="2" stroke-miterlimit="10"/>
<path d="M92.6079 95.014C92.6079 97.4196 89.24 99.4404 85.006 99.4404C80.772 99.4404 77.4041 97.4196 77.4041 95.014C77.4041 92.6083 80.772 90.5875 85.006 90.5875C89.24 90.5875 92.6079 92.5121 92.6079 95.014Z" fill="#672ED6" stroke="#211F21" stroke-miterlimit="10"/>
<path d="M94.3399 57.5815H87.7003C83.2738 57.5815 79.6172 61.7193 79.6172 66.7231V77.0194C79.6172 77.3081 79.6172 77.5967 79.6172 77.8854C79.521 78.1741 79.521 78.4628 79.521 78.8477V85.1024V85.4873V91.7421C79.521 94.0515 81.3493 95.8798 83.6588 95.8798H86.2569C88.5663 95.8798 90.3946 94.0515 90.3946 91.7421V86.1609H94.2437C98.6701 86.1609 102.327 82.0232 102.327 77.0194V66.7231C102.423 61.7193 98.7664 57.5815 94.3399 57.5815Z" fill="white" stroke="black" stroke-miterlimit="10"/>
<path d="M89.0474 70.0911C89.0474 70.9572 89.721 71.6308 90.587 71.6308C91.453 71.6308 92.1266 70.9572 92.1266 70.0911C92.1266 69.2251 91.453 68.5515 90.587 68.5515C89.721 68.5515 89.0474 69.2251 89.0474 70.0911Z" fill="#141414"/>
<path d="M98.9589 69.8986C98.9589 70.5722 99.5362 71.1496 100.21 71.1496C100.883 71.1496 101.461 70.5722 101.461 69.8986C101.461 69.2251 100.883 68.6477 100.21 68.6477C99.44 68.5515 98.9589 69.1288 98.9589 69.8986Z" fill="#141414"/>
<path d="M97.5153 76.057C97.5153 76.057 96.7455 78.2702 95.2059 78.3665C93.57 78.5589 92.3191 76.7306 92.3191 75.3834L97.5153 76.057Z" fill="#F7F6F6"/>
<path d="M96.938 75.8647C96.938 75.961 96.938 75.961 96.8418 76.0572C96.938 75.8647 96.8418 76.0572 96.8418 76.1534C96.8418 76.2496 96.7455 76.3459 96.7455 76.4421C96.5531 76.827 96.3606 77.1157 95.9757 77.5006C95.687 77.7893 95.2059 77.9817 94.7248 77.8855C94.2436 77.7893 93.7625 77.5006 93.4738 77.1157C93.2814 76.9232 93.0889 76.6345 92.9927 76.3459C92.8965 76.0572 92.8002 75.7685 92.8002 75.4798C92.6078 75.6723 92.4153 75.8647 92.2229 76.0572C93.7625 76.2496 95.3021 76.4421 96.8418 76.6345C97.0342 76.6345 97.3229 76.7308 97.5154 76.7308C97.804 76.7308 98.0927 76.4421 98.0927 76.1534C98.0927 75.8647 97.804 75.6723 97.5154 75.5761C95.9757 75.3836 94.4361 75.1911 92.8965 74.9987C92.704 74.9987 92.4153 74.9025 92.2229 74.9025C91.9342 74.9025 91.6455 75.1911 91.6455 75.4798C91.7417 76.9232 92.704 78.4629 94.1474 78.944C95.5908 79.4251 96.7455 78.4629 97.5154 77.3081C97.7078 77.0195 97.9003 76.6346 97.9965 76.2496C98.0927 75.961 97.9003 75.6723 97.6116 75.5761C97.3229 75.3836 97.0342 75.5761 96.938 75.8647Z" fill="#141414"/>
<path d="M87.604 79.3289C89.6767 79.3289 91.3569 77.6487 91.3569 75.5761C91.3569 73.5035 89.6767 71.8232 87.604 71.8232C85.5314 71.8232 83.8512 73.5035 83.8512 75.5761C83.8512 77.6487 85.5314 79.3289 87.604 79.3289Z" fill="#E4B0C8"/>
<path d="M101.364 73.0742C101.557 73.0742 101.846 73.0742 102.038 73.1704V77.0195C102.038 77.5969 102.038 78.1742 101.942 78.6554C101.749 78.6554 101.557 78.6554 101.461 78.6554C99.921 78.6554 98.5739 77.4044 98.5739 75.7686C98.5739 74.3252 99.8248 73.0742 101.364 73.0742Z" fill="#E4B0C8"/>
<path d="M95.7833 68.5515L95.4946 73.7478L97.9003 72.2081L95.7833 68.5515Z" fill="#D96980"/>
<path d="M81.4454 71.9194L82.6002 65.6647C82.6002 65.6647 89.0474 67.7817 94.0512 63.7401C99.055 59.7948 90.8757 58.159 92.2229 61.142C93.57 64.125 98.0927 65.2798 103.674 64.7024C112.046 63.7401 112.238 53.6363 107.427 50.6533C102.615 47.6702 97.1304 51.1344 97.1304 51.1344C97.1304 51.1344 99.6323 46.1306 93.3776 44.3985C88.1813 43.0513 84.3322 47.3816 83.8511 49.3061C83.8511 49.3061 75.3832 50.1721 71.6303 55.4646C67.8775 60.8533 67.5888 67.3005 71.2454 73.0741C74.9982 78.8477 79.4247 82.0232 79.4247 82.0232C79.4247 82.0232 80.1945 74.5175 81.4454 71.9194Z" fill="black"/>
<path d="M71.2456 73.844C71.2456 76.7308 73.6513 79.1365 76.5381 79.1365C79.4249 79.1365 81.8306 76.827 81.8306 73.844C81.8306 70.9572 79.4249 68.5515 76.5381 68.5515C73.6513 68.6477 71.2456 70.9572 71.2456 73.844Z" fill="white"/>
<path d="M80.0983 74.6138C80.0983 74.1326 80.0983 73.6515 79.9059 73.2666C79.6172 72.4005 79.0398 71.5345 78.1738 71.1496C77.5002 70.8609 76.7304 70.7647 75.9606 70.8609C75.5757 70.8609 75.287 71.1496 75.287 71.5345C75.287 71.8232 75.5757 72.2081 75.9606 72.2081C76.2493 72.2081 76.6342 72.2081 76.9228 72.2081H77.0191C76.8266 72.2081 76.9228 72.2081 77.0191 72.2081C77.1153 72.2081 77.1153 72.2081 77.2115 72.2081C77.3078 72.2081 77.5002 72.3043 77.5964 72.3043C77.7889 72.4005 77.5002 72.2081 77.5964 72.3043C77.5964 72.3043 77.6927 72.3043 77.6927 72.4005C77.7889 72.4968 77.8851 72.4968 77.9813 72.593C77.8851 72.4968 77.8851 72.4968 77.8851 72.593C77.8851 72.593 77.8851 72.593 77.9813 72.593L78.0776 72.6892C78.1738 72.7855 78.1738 72.8817 78.27 72.8817C78.0776 72.6892 78.1738 72.7855 78.27 72.8817L78.3663 72.9779C78.4625 73.0741 78.4625 73.1704 78.4625 73.2666C78.4625 73.2666 78.4625 73.3628 78.5587 73.3628C78.5587 73.459 78.4625 73.1704 78.5587 73.2666C78.5587 73.2666 78.5587 73.2666 78.5587 73.3628C78.5587 73.459 78.6549 73.5553 78.6549 73.6515C78.6549 73.8439 78.7512 73.9402 78.7512 74.1326V74.2289C78.7512 74.3251 78.7512 74.0364 78.7512 74.1326C78.7512 74.2289 78.7512 74.2289 78.7512 74.3251C78.7512 74.4213 78.7512 74.6138 78.7512 74.71C78.7512 75.0949 79.0398 75.3836 79.4247 75.3836C79.8097 75.1911 80.0983 74.9024 80.0983 74.6138Z" fill="#090909"/>
<path d="M143.801 110.218H55.6567C51.519 110.218 48.0548 106.85 48.0548 102.616V55.2721C48.0548 51.1343 51.4227 47.6702 55.6567 47.6702H143.801C147.938 47.6702 151.402 51.0381 151.402 55.2721V102.616C151.306 106.753 147.938 110.218 143.801 110.218Z" stroke="black" stroke-miterlimit="10"/>
<path d="M186.814 16.4924H145.821C140.625 16.4924 136.295 20.7264 136.295 26.0189V42.7624V48.6322V66.9153L145.918 58.0624H186.718C191.914 58.0624 196.244 53.8285 196.244 48.536V26.0189C196.244 20.8226 192.01 16.4924 186.814 16.4924Z" fill="white" stroke="black" stroke-miterlimit="10"/>
<path d="M156.887 38.0473C156.887 40.3567 155.059 42.1851 152.75 42.1851C150.44 42.1851 148.612 40.3567 148.612 38.0473C148.612 35.7379 150.44 33.9095 152.75 33.9095C155.059 33.9095 156.887 35.7379 156.887 38.0473Z" fill="white" stroke="black" stroke-miterlimit="10"/>
<path d="M171.225 38.0473C171.225 40.3567 169.397 42.1851 167.088 42.1851C164.778 42.1851 162.95 40.3567 162.95 38.0473C162.95 35.7379 164.778 33.9095 167.088 33.9095C169.397 33.9095 171.225 35.7379 171.225 38.0473Z" fill="white" stroke="black" stroke-miterlimit="10"/>
<path d="M185.563 38.0473C185.563 40.3567 183.735 42.1851 181.425 42.1851C179.116 42.1851 177.288 40.3567 177.288 38.0473C177.288 35.7379 179.116 33.9095 181.425 33.9095C183.735 33.9095 185.563 35.7379 185.563 38.0473Z" fill="white" stroke="black" stroke-miterlimit="10"/>
<path d="M135.155 189.023C134.337 184.606 131.883 181.743 129.102 179.861C124.357 176.752 118.14 176.752 113.395 179.861C110.614 181.661 108.078 184.606 107.341 189.023C105.869 197.204 113.068 201.54 114.377 203.257C114.377 203.257 115.277 203.994 115.686 204.894C115.767 205.139 115.931 205.793 116.013 206.775H121.167H126.402C126.566 205.793 126.648 205.139 126.729 204.894C127.138 203.994 128.038 203.257 128.038 203.257C129.429 201.621 136.628 197.204 135.155 189.023Z" fill="#EEDA36" stroke="black" stroke-miterlimit="10"/>
<path d="M119.04 207.593C119.04 207.593 119.04 199.822 118.467 198.758C117.894 197.613 115.277 193.768 114.868 192.95C114.459 192.132 115.358 191.15 116.013 192.377C116.586 193.441 119.121 196.958 119.694 198.349C120.267 199.822 120.758 207.92 120.758 207.92L119.04 207.593Z" fill="white"/>
<path d="M123.294 207.593C123.294 207.593 123.294 199.822 123.866 198.758C124.439 197.613 127.057 193.768 127.466 192.95C127.875 192.132 126.975 191.15 126.32 192.377C125.748 193.441 123.212 196.958 122.639 198.349C122.067 199.822 121.576 207.92 121.576 207.92L123.294 207.593Z" fill="white"/>
<path d="M127.057 192.705C125.993 193.195 124.193 193.277 122.884 192.868C121.821 193.686 120.267 193.359 119.203 192.541C117.813 193.114 115.931 193.114 115.604 193.195V192.459C116.422 192.459 117.649 192.296 118.549 192.05C117.813 191.232 117.649 190.332 118.14 189.678C118.794 188.942 119.612 188.942 120.103 189.351C120.758 189.841 121.003 190.823 120.43 191.723C120.267 191.887 120.103 192.05 119.939 192.214C120.676 192.623 121.494 192.786 122.148 192.541C121.903 192.377 121.739 192.214 121.576 192.05C121.33 191.805 121.085 191.15 121.657 190.414C122.066 189.923 122.557 189.678 123.048 189.76C123.539 189.841 123.866 190.25 124.03 190.823C124.112 191.314 123.948 191.887 123.621 192.296C124.684 192.541 126.075 192.459 126.893 192.132L127.057 192.705ZM122.394 190.578C122.312 190.659 122.23 190.741 122.148 190.823C121.903 191.232 121.985 191.478 122.066 191.559C122.23 191.723 122.475 191.887 122.721 192.05C123.048 191.723 123.212 191.314 123.13 190.905C123.048 190.659 122.884 190.414 122.721 190.414C122.721 190.414 122.557 190.496 122.394 190.578ZM119.285 191.723C119.53 191.559 119.694 191.478 119.858 191.314C120.185 190.823 120.021 190.25 119.694 189.923C119.367 189.678 119.04 189.76 118.712 190.169C118.385 190.496 118.712 191.15 119.121 191.559C119.203 191.641 119.203 191.641 119.285 191.723Z" fill="white"/>
<path d="M121.167 205.957C118.385 205.957 115.931 205.221 115.522 204.975C115.522 205.057 115.604 205.057 115.604 205.139C116.013 205.875 116.422 212.338 117.485 214.792C117.649 215.201 117.894 215.528 118.058 215.692C118.631 216.101 119.858 216.428 121.167 216.428C122.475 216.51 123.621 216.101 124.275 215.692C124.521 215.528 124.684 215.201 124.848 214.792C125.83 212.338 126.32 205.875 126.729 205.139C126.729 205.057 126.811 205.057 126.811 204.975C126.402 205.221 123.948 205.957 121.167 205.957Z" fill="white" stroke="black" stroke-miterlimit="10"/>
<path d="M121.167 208.82C122.803 208.82 124.521 208.575 126.157 208.084C126.239 207.348 126.32 206.612 126.484 206.121C123.048 207.43 119.285 207.43 115.931 206.121C116.013 206.612 116.095 207.348 116.258 208.084C117.813 208.575 119.53 208.82 121.167 208.82Z" fill="black"/>
<path d="M121.167 212.093C122.639 212.093 124.193 211.929 125.666 211.52C125.748 210.865 125.911 210.211 125.993 209.557C122.885 210.62 119.53 210.62 116.422 209.557C116.504 210.211 116.585 210.865 116.749 211.52C118.14 211.929 119.776 212.093 121.167 212.093Z" fill="black"/>
<path d="M116.995 213.074C117.158 213.729 117.322 214.383 117.485 214.792C117.485 214.874 117.567 214.956 117.567 215.038C118.794 215.283 119.94 215.365 121.167 215.365C122.312 215.365 123.539 215.201 124.766 215.038C124.766 214.956 124.848 214.874 124.848 214.792C125.011 214.301 125.175 213.729 125.339 213.074C122.639 213.81 119.776 213.81 116.995 213.074Z" fill="black"/>
<path d="M121.494 173.48C120.676 173.48 119.94 172.826 119.94 172.008V165.054C119.94 164.236 120.594 163.582 121.412 163.582C122.23 163.582 122.885 164.236 122.885 165.054V172.008C122.967 172.826 122.312 173.48 121.494 173.48Z" fill="white" stroke="black" stroke-miterlimit="10"/>
<path d="M132.129 175.362C131.392 174.953 131.147 174.053 131.474 173.317L134.746 167.181C135.155 166.445 136.055 166.2 136.792 166.609C137.528 167.018 137.773 167.917 137.364 168.654L134.092 174.789C133.765 175.525 132.865 175.771 132.129 175.362Z" fill="white" stroke="black" stroke-miterlimit="10"/>
<path d="M110.696 175.362C111.432 174.953 111.759 174.053 111.35 173.317L108.078 167.181C107.669 166.445 106.769 166.2 106.033 166.609C105.296 167.018 105.051 167.917 105.46 168.654L108.732 174.789C109.141 175.525 110.041 175.771 110.696 175.362Z" fill="white" stroke="black" stroke-miterlimit="10"/>
<path d="M102.842 183.624C102.679 184.442 101.86 184.933 101.042 184.769L94.2526 183.297C93.4345 183.133 92.9437 182.315 93.1073 181.497C93.2709 180.679 94.0889 180.188 94.907 180.352L101.697 181.824C102.433 181.988 103.006 182.806 102.842 183.624Z" fill="white" stroke="black" stroke-miterlimit="10"/>
<path d="M102.433 194.75C102.188 193.932 101.37 193.441 100.552 193.686L93.8435 195.65C93.0255 195.895 92.6165 196.713 92.8619 197.531C93.1073 198.349 93.9253 198.758 94.7434 198.513L101.451 196.55C102.188 196.386 102.679 195.486 102.433 194.75Z" fill="white" stroke="black" stroke-miterlimit="10"/>
<path d="M140.064 183.624C140.227 184.442 141.045 184.933 141.863 184.769L148.653 183.297C149.471 183.133 149.962 182.315 149.799 181.497C149.635 180.679 148.817 180.188 147.999 180.352L141.209 181.824C140.473 181.988 139.9 182.806 140.064 183.624Z" fill="white" stroke="black" stroke-miterlimit="10"/>
<path d="M140.473 194.75C140.718 193.932 141.536 193.441 142.354 193.686L149.062 195.65C149.88 195.895 150.289 196.713 150.044 197.531C149.799 198.349 148.981 198.758 148.163 198.513L141.454 196.55C140.718 196.386 140.227 195.486 140.473 194.75Z" fill="white" stroke="black" stroke-miterlimit="10"/>
</svg>
