<svg width="62" height="53" viewBox="0 0 62 53" fill="none" xmlns="http://www.w3.org/2000/svg">
<path d="M10.4374 1.13928H51.4618C56.6925 1.13928 61 5.34428 61 10.6775V27.3949V33.2409V51.5993L51.3593 42.7791H10.54C5.30939 42.7791 1.00184 38.5741 1.00184 33.2409V10.6775C0.899276 5.34428 5.10426 1.13928 10.4374 1.13928Z" fill="white" stroke="black" stroke-miterlimit="10"/>
<path d="M27.0794 22.797H26.5794V23.297H27.0794V22.797ZM32.8055 22.797V23.297H33.3055V22.797H32.8055ZM20.0345 12.7925L19.6049 12.5366L19.3374 12.9857L19.7979 13.233L20.0345 12.7925ZM24.8276 15.366L24.5911 15.8065L25.0181 16.0357L25.2605 15.6161L24.8276 15.366ZM27.0794 23.297H32.8055V22.297H27.0794V23.297ZM33.3055 22.797C33.3055 22.2245 33.5543 21.7363 34.0057 21.2216C34.4739 20.6878 35.0859 20.2019 35.777 19.5825C37.1265 18.3729 38.5812 16.8072 38.5812 14.0792H37.5812C37.5812 16.3696 36.3979 17.683 35.1096 18.8378C34.4818 19.4006 33.7749 19.9682 33.2539 20.5623C32.7161 21.1755 32.3055 21.8897 32.3055 22.797H33.3055ZM38.5812 14.0792C38.5812 11.9425 37.607 10.2794 35.9735 9.16999C34.3601 8.07425 32.1278 7.53148 29.5886 7.53148V8.53148C32.0034 8.53148 34.0173 9.05027 35.4117 9.99725C36.786 10.9306 37.5812 12.2914 37.5812 14.0792H38.5812ZM29.5886 7.53148C24.7097 7.53148 21.4126 9.50103 19.6049 12.5366L20.4641 13.0483C22.0662 10.3578 25.0099 8.53148 29.5886 8.53148V7.53148ZM19.7979 13.233L24.5911 15.8065L25.0641 14.9254L20.271 12.3519L19.7979 13.233ZM25.2605 15.6161C26.0091 14.3205 27.2932 13.5498 28.8487 13.5498V12.5498C26.93 12.5498 25.3189 13.5162 24.3947 15.1158L25.2605 15.6161ZM28.8487 13.5498C29.5979 13.5498 30.196 13.727 30.5915 14.0055C30.9722 14.2735 31.1796 14.641 31.1796 15.1086H32.1796C32.1796 14.2895 31.7918 13.6275 31.1672 13.1878C30.5575 12.7586 29.7401 12.5498 28.8487 12.5498V13.5498ZM31.1796 15.1086C31.1796 15.5393 30.9783 15.945 30.5807 16.4103C30.1717 16.8888 29.6393 17.3401 29.0349 17.9149C27.8631 19.0294 26.5794 20.4739 26.5794 22.797H27.5794C27.5794 20.9059 28.5958 19.7126 29.7241 18.6395C30.2697 18.1206 30.8873 17.5907 31.3409 17.06C31.8058 16.516 32.1796 15.8843 32.1796 15.1086H31.1796ZM29.9425 31.7895C32.3464 31.7895 34.1097 30.0804 34.1097 27.9118H33.1097C33.1097 29.4747 31.8491 30.7895 29.9425 30.7895V31.7895ZM34.1097 27.9118C34.1097 25.6959 32.3301 24.0984 29.9425 24.0984V25.0984C31.8654 25.0984 33.1097 26.3318 33.1097 27.9118H34.1097ZM29.9425 24.0984C27.5487 24.0984 25.8074 25.7015 25.8074 27.9118H26.8074C26.8074 26.3262 28.0256 25.0984 29.9425 25.0984V24.0984ZM25.8074 27.9118C25.8074 30.0747 27.5325 31.7895 29.9425 31.7895V30.7895C28.0418 30.7895 26.8074 29.4805 26.8074 27.9118H25.8074Z" fill="black"/>
</svg>
