<svg width="302" height="190" viewBox="0 0 302 190" fill="none" xmlns="http://www.w3.org/2000/svg">
<path d="M296.517 99.2395V108.207" stroke="#DB7294" stroke-width="0.75" stroke-miterlimit="10" stroke-linecap="round" stroke-linejoin="round"/>
<path d="M292.033 103.723H301" stroke="#DB7294" stroke-width="0.75" stroke-miterlimit="10" stroke-linecap="round" stroke-linejoin="round"/>
<path d="M262.639 130.14C272.078 124.59 275.231 112.438 269.68 102.999C264.129 93.5597 251.977 90.4075 242.538 95.9582C233.099 101.509 229.947 113.661 235.497 123.1C241.048 132.539 253.2 135.691 262.639 130.14Z" fill="#D96980"/>
<path d="M264.533 104.62H241.319V122.056H264.533V104.62Z" stroke="white" stroke-miterlimit="10"/>
<path d="M241.319 104.62L252.876 115.381L264.533 104.62" stroke="white" stroke-miterlimit="10"/>
<path d="M296.517 146.566L294.624 153.74L292.631 160.914L287.45 155.633L282.169 150.352L289.343 148.459L296.517 146.566Z" stroke="#9E88E5" stroke-miterlimit="10"/>
<path d="M207.481 181.39C211.19 179.846 212.944 175.588 211.4 171.88C209.856 168.171 205.598 166.417 201.889 167.961C198.181 169.505 196.426 173.763 197.97 177.471C199.515 181.18 203.773 182.934 207.481 181.39Z" stroke="#D96980" stroke-miterlimit="10"/>
<path d="M87.0844 51.3155C90.6061 51.3155 93.461 48.4606 93.461 44.9389C93.461 41.4172 90.6061 38.5623 87.0844 38.5623C83.5627 38.5623 80.7078 41.4172 80.7078 44.9389C80.7078 48.4606 83.5627 51.3155 87.0844 51.3155Z" stroke="#672ED6" stroke-miterlimit="10"/>
<path d="M272.903 41.053C272.903 43.8428 270.711 46.0348 267.921 46.0348C265.132 46.0348 262.94 43.8428 262.94 41.053C262.94 38.2633 265.132 36.0713 267.921 36.0713C270.711 36.0713 272.903 38.2633 272.903 41.053Z" fill="#672ED6"/>
<path d="M215.115 140.887C215.115 140.887 223.385 140.09 225.577 145.271C227.769 150.452 228.566 155.533 241.618 149.157" stroke="#EEDA36" stroke-miterlimit="10"/>
<path d="M55.1016 100.834C84.9812 100.834 109.203 78.4854 109.203 50.917C109.203 23.3486 84.9812 1 55.1016 1C25.2221 1 1 23.3486 1 50.917C1 78.4854 25.2221 100.834 55.1016 100.834Z" stroke="#C1C0FF" stroke-miterlimit="10" stroke-dasharray="4 4"/>
<path d="M48.9258 172.671H176.757C181.938 172.671 186.023 168.486 186.023 163.405V81.1066C186.023 75.9256 181.839 71.8406 176.757 71.8406H48.9258C43.7448 71.8406 39.6597 76.0252 39.6597 81.1066V163.405C39.5601 168.486 43.7448 172.671 48.9258 172.671Z" fill="#B4AAF9"/>
<path d="M109.305 163.305C109.305 164.7 110.201 165.995 111.497 166.494C112.892 166.992 114.386 166.593 115.283 165.398C116.18 164.302 116.279 162.707 115.582 161.512C114.884 160.316 113.489 159.718 112.095 159.918C110.401 160.316 109.305 161.711 109.305 163.305C109.305 164.102 108.01 164.102 108.109 163.305C108.109 161.412 109.305 159.619 111.098 159.021C112.892 158.323 114.984 158.921 116.279 160.416C117.475 161.91 117.674 164.102 116.678 165.696C115.681 167.39 113.689 168.187 111.796 167.888C109.604 167.49 108.109 165.497 108.009 163.405C108.009 162.508 109.305 162.508 109.305 163.305Z" fill="black"/>
<path d="M58.5906 154.537H167.093C172.274 154.537 176.359 150.352 176.359 145.271V86.9848C176.359 81.8038 172.174 77.7188 167.093 77.7188H58.5906C53.4096 77.7188 49.3246 81.9034 49.3246 86.9848V145.271C49.3246 150.352 53.5093 154.537 58.5906 154.537Z" fill="white" stroke="black" stroke-miterlimit="10"/>
<path d="M115.582 121.558C115.582 121.558 96.4517 130.724 89.278 117.274C82.1043 103.922 93.5623 87.3831 102.828 85.0915C112.094 82.7003 119.368 109.004 115.582 121.558Z" fill="black"/>
<path d="M123.751 122.654C123.751 122.654 132.121 128.931 144.774 124.148C157.527 119.366 149.656 96.0514 144.774 88.8777C139.892 81.704 128.833 77.3201 123.951 79.6117C119.168 81.8036 115.083 108.008 123.751 122.654Z" fill="black"/>
<path d="M141.589 82.7775C138.581 78.7058 139.443 72.9664 143.515 69.9583C147.587 66.9502 153.326 67.8124 156.334 71.8842C159.342 75.9559 158.48 81.6953 154.408 84.7034C150.337 87.7115 144.597 86.8492 141.589 82.7775Z" fill="black"/>
<path d="M95.3554 103.424C95.3554 103.424 98.4441 96.4497 101.035 96.8482C103.625 97.2468 102.928 101.83 102.529 104.321C102.131 106.812 100.935 109.9 103.725 112.79C106.415 115.679 92.9642 111.295 95.3554 103.424Z" fill="white" stroke="black" stroke-miterlimit="10"/>
<path d="M109.404 83.796H117.175C122.356 83.796 126.641 88.6781 126.641 94.5566V106.712C126.641 107.011 126.641 107.409 126.641 107.708C126.74 108.107 126.74 108.406 126.74 108.804V116.177V116.576V123.949C126.74 126.639 124.548 128.831 121.858 128.831H118.769C116.079 128.831 113.887 126.639 113.887 123.949V117.373H109.404C104.223 117.373 99.9385 112.491 99.9385 106.612V94.4569C99.9385 88.6781 104.123 83.796 109.404 83.796Z" fill="white" stroke="black" stroke-miterlimit="10"/>
<path d="M121.659 105.018C121.659 107.409 119.666 109.402 117.275 109.402C114.884 109.402 112.891 107.409 112.891 105.018C112.891 102.627 114.884 100.634 117.275 100.634C119.766 100.634 121.659 102.627 121.659 105.018Z" fill="#E4B0C8"/>
<path d="M101.035 102.029C100.736 102.029 100.537 102.029 100.238 102.128V106.712C100.238 107.409 100.238 108.007 100.437 108.704C100.636 108.704 100.835 108.804 101.035 108.804C102.828 108.804 104.323 107.309 104.323 105.516C104.422 103.523 102.928 102.029 101.035 102.029Z" fill="#E4B0C8"/>
<path d="M115.581 98.5419C115.581 99.5383 114.784 100.335 113.788 100.335C112.792 100.335 111.994 99.5383 111.994 98.5419C111.994 97.5456 112.792 96.7485 113.788 96.7485C114.784 96.7485 115.581 97.5456 115.581 98.5419Z" fill="#0C0C0C"/>
<path d="M104.024 98.2431C104.024 99.0401 103.326 99.7376 102.529 99.7376C101.732 99.7376 101.035 99.0401 101.035 98.2431C101.035 97.446 101.732 96.7485 102.529 96.7485C103.326 96.7485 104.024 97.446 104.024 98.2431Z" fill="#0C0C0C"/>
<path d="M105.418 106.413C105.418 106.413 106.315 109.004 108.208 109.203C110.101 109.402 111.596 107.31 111.695 105.716L105.418 106.413Z" fill="#FFF7F7"/>
<path d="M106.016 106.214C106.016 106.313 106.016 106.313 106.116 106.413C106.016 106.214 106.116 106.513 106.216 106.513C106.216 106.612 106.315 106.712 106.315 106.812C106.614 107.31 106.814 107.708 107.212 108.007C107.611 108.406 108.109 108.605 108.707 108.505C109.304 108.406 109.902 108.007 110.301 107.509C110.799 107.011 111.098 106.214 111.098 105.516C111.297 105.716 111.496 105.915 111.696 106.114C109.902 106.313 108.109 106.513 106.216 106.812C105.917 106.812 105.718 106.911 105.419 106.911C105.12 106.911 104.821 106.612 104.821 106.313C104.821 106.014 105.12 105.815 105.419 105.716C107.212 105.516 109.005 105.317 110.899 105.018C111.197 105.018 111.397 104.918 111.696 104.918C111.995 104.918 112.293 105.217 112.293 105.516C112.194 107.21 110.998 108.904 109.404 109.502C107.81 110 106.415 109.003 105.618 107.609C105.419 107.21 105.219 106.812 105.02 106.413C104.622 105.815 105.718 105.516 106.016 106.214Z" fill="#0C0C0C"/>
<path d="M107.71 96.7485L108.009 102.826L105.22 101.033L107.71 96.7485Z" fill="#DB7294"/>
<path d="M128.932 82.2019C128.633 77.7183 126.043 73.5337 122.755 73.434C115.481 73.3344 115.581 78.7147 115.581 78.7147C103.127 63.3709 87.0854 72.4377 92.2664 83.7961C97.4474 95.0548 117.474 93.361 117.474 93.361C118.47 93.361 119.467 93.0621 120.363 93.1617C122.755 93.6599 124.349 96.5493 125.146 100.236C126.74 109.502 133.615 89.3756 128.932 82.2019Z" fill="black"/>
<path d="M130.227 95.9514C129.032 95.9514 127.936 96.2503 126.94 96.7485V98.6416C127.836 97.9441 128.932 97.5456 130.227 97.5456C133.217 97.5456 135.608 99.9368 135.608 102.926C135.608 105.915 133.217 108.306 130.227 108.306C129.032 108.306 127.936 107.908 126.94 107.21V109.103C127.936 109.601 129.032 109.9 130.227 109.9C134.113 109.9 137.302 106.812 137.302 102.926C137.302 99.1397 134.113 95.9514 130.227 95.9514Z" fill="black"/>
<path d="M136.505 103.026C136.505 106.413 133.715 109.203 130.327 109.203C126.84 109.203 124.15 106.413 124.15 103.026C124.15 99.6379 126.94 96.8481 130.327 96.8481C133.715 96.8481 136.505 99.5383 136.505 103.026Z" fill="white"/>
<path d="M126.242 103.822C126.242 103.324 126.341 102.726 126.441 102.228C126.74 101.232 127.437 100.236 128.434 99.8371C129.231 99.4385 130.128 99.3389 131.024 99.4385C131.423 99.4385 131.722 99.7374 131.722 100.136C131.722 100.435 131.423 100.833 131.024 100.833C130.626 100.833 130.327 100.734 129.928 100.833H129.829C129.829 100.833 130.028 100.833 129.829 100.833C129.729 100.833 129.729 100.833 129.629 100.833C129.53 100.833 129.33 100.933 129.231 100.933C129.032 101.033 129.33 100.833 129.231 100.933C129.131 100.933 129.131 101.033 129.032 101.033C128.932 101.033 128.932 101.132 128.832 101.132C128.832 101.132 128.733 101.232 128.633 101.232C128.633 101.232 128.733 101.132 128.633 101.232C128.633 101.232 128.633 101.232 128.533 101.332L128.434 101.431C128.334 101.531 128.334 101.631 128.234 101.73C128.334 101.631 128.334 101.631 128.234 101.73C128.234 101.73 128.234 101.73 128.234 101.83L128.135 101.929C128.035 102.029 128.035 102.129 127.936 102.228C127.936 102.228 127.936 102.328 127.836 102.328C127.836 102.428 127.936 102.129 127.836 102.228C127.836 102.228 127.836 102.228 127.836 102.328C127.836 102.428 127.736 102.527 127.736 102.627C127.637 102.826 127.637 102.926 127.637 103.125V103.225C127.637 103.424 127.637 103.025 127.637 103.125C127.637 103.225 127.637 103.225 127.637 103.324C127.637 103.524 127.637 103.623 127.637 103.822C127.637 104.221 127.338 104.52 126.939 104.52C126.541 104.42 126.242 104.221 126.242 103.822Z" fill="#020202"/>
<path d="M171.576 186.42C166.793 148.858 134.113 121.359 111.994 129.33C94.4586 135.706 86.7868 170.877 84.1963 186.42H171.576Z" fill="#E4B0C8" stroke="#020106" stroke-miterlimit="10"/>
<path d="M126.84 132.219H114.685C112.094 132.219 109.902 130.127 109.902 127.437V126.141C109.902 123.551 111.995 121.359 114.685 121.359H126.84C129.431 121.359 131.623 123.451 131.623 126.141V127.437C131.523 130.127 129.431 132.219 126.84 132.219Z" fill="#DB7294" stroke="#020106" stroke-miterlimit="10"/>
<path d="M112.094 122.057V131.721" stroke="#020106" stroke-miterlimit="10"/>
<path d="M114.485 121.459V132.219" stroke="#020106" stroke-miterlimit="10"/>
<path d="M117.076 121.459V132.219" stroke="#020106" stroke-miterlimit="10"/>
<path d="M119.667 121.459V132.219" stroke="#020106" stroke-miterlimit="10"/>
<path d="M122.157 121.459V132.219" stroke="#020106" stroke-miterlimit="10"/>
<path d="M124.748 121.459V132.219" stroke="#020106" stroke-miterlimit="10"/>
<path d="M127.338 121.459V132.219" stroke="#020106" stroke-miterlimit="10"/>
<path d="M129.829 122.355V131.422" stroke="#020106" stroke-miterlimit="10"/>
<path d="M155.734 99.1407C154.638 98.3436 153.443 103.126 152.845 106.314C153.044 103.724 153.243 99.4396 152.347 99.1407C151.35 98.8418 150.254 103.425 149.756 106.215C149.955 103.624 150.254 99.2403 149.258 99.1407C148.062 99.0411 147.166 103.126 146.667 106.215C146.966 103.525 147.166 100.137 146.169 99.9378C144.575 99.6389 144.077 101.532 143.28 106.115C142.483 110.599 141.187 113.687 135.01 116.278C129.63 118.569 123.253 121.758 117.375 141.485L134.711 142.283C134.711 141.784 134.711 141.286 134.811 140.788C136.006 122.356 146.368 123.053 151.251 119.267C156.133 115.68 158.026 100.635 155.734 99.1407Z" fill="white" stroke="#020106" stroke-miterlimit="10"/>
<path d="M146.966 186.42C139.195 176.357 134.014 158.124 134.811 141.884L117.674 140.788C116.777 143.777 115.88 147.164 114.984 150.95C111.197 167.29 113.688 179.247 116.478 186.42H146.966Z" fill="#E4B0C8" stroke="#020106" stroke-miterlimit="10"/>
<path d="M116.179 145.87H134.711C134.711 144.176 134.711 142.482 134.811 140.888C134.911 139.692 135.01 138.497 135.209 137.5L119.069 136.703C117.973 139.294 117.076 142.382 116.179 145.87Z" fill="#DB7294" stroke="#020106" stroke-miterlimit="10"/>
<path d="M121.559 136.803L119.467 145.869" stroke="#020106" stroke-miterlimit="10"/>
<path d="M124.947 136.902L123.751 145.869" stroke="#020106" stroke-miterlimit="10"/>
<path d="M128.434 136.902L127.837 145.869" stroke="#020106" stroke-miterlimit="10"/>
<path d="M131.523 137.201L131.224 145.57" stroke="#020106" stroke-miterlimit="10"/>
<path d="M97.5476 106.314C96.8502 102.229 100.836 97.7458 99.5403 96.7494C98.2451 95.7531 90.8721 102.429 92.9644 109.104C95.0567 115.879 102.629 117.075 99.9388 127.138C99.0421 130.725 96.9498 135.607 94.3593 140.888L111.596 141.286C112.692 129.23 111.496 120.263 110.102 117.374C108.507 114.086 98.2451 110.399 97.5476 106.314Z" fill="white" stroke="black" stroke-miterlimit="10"/>
<path d="M99.8393 186.421C103.127 177.055 109.105 159.121 110.799 148.061C111.198 145.471 111.497 142.98 111.696 140.589L95.2561 139.094C90.5732 149.058 83.6985 160.914 78.916 168.188C75.3291 173.767 73.4361 180.542 73.2368 186.321H99.8393V186.421Z" fill="#E4B0C8" stroke="#020106" stroke-miterlimit="10"/>
<path d="M111.198 145.571C111.596 142.482 111.895 139.493 111.995 136.703H96.352C95.1564 139.393 93.7615 142.183 92.267 145.073L111.198 145.571Z" fill="#DB7294" stroke="black" stroke-miterlimit="10"/>
<path d="M98.5437 136.902L96.1525 145.571" stroke="black" stroke-miterlimit="10"/>
<path d="M101.832 136.902L100.736 145.371" stroke="black" stroke-miterlimit="10"/>
<path d="M104.821 136.803L104.422 145.371" stroke="black" stroke-miterlimit="10"/>
<path d="M108.507 136.803L107.81 145.471" stroke="black" stroke-miterlimit="10"/>
<path d="M58.5906 154.537H167.093C172.274 154.537 176.359 150.352 176.359 145.271V86.9848C176.359 81.8038 172.174 77.7188 167.093 77.7188H58.5906C53.4096 77.7188 49.3246 81.9034 49.3246 86.9848V145.271C49.3246 150.352 53.5093 154.537 58.5906 154.537Z" stroke="black" stroke-miterlimit="10"/>
<path d="M217.705 51.515H175.261C169.881 51.515 165.397 55.8989 165.397 61.3788V78.7153V84.793V103.724L175.361 94.5572H217.705C223.086 94.5572 227.569 90.1733 227.569 84.6934V61.2792C227.47 55.8989 223.086 51.515 217.705 51.515Z" fill="white" stroke="black" stroke-miterlimit="10"/>
<path d="M186.819 73.833C186.819 76.2243 184.926 78.1173 182.535 78.1173C180.143 78.1173 178.25 76.2243 178.25 73.833C178.25 71.4418 180.143 69.5487 182.535 69.5487C184.926 69.5487 186.819 71.4418 186.819 73.833Z" fill="white" stroke="black" stroke-miterlimit="10"/>
<path d="M197.38 78.1173C199.746 78.1173 201.664 76.1992 201.664 73.833C201.664 71.4669 199.746 69.5487 197.38 69.5487C195.014 69.5487 193.096 71.4669 193.096 73.833C193.096 76.1992 195.014 78.1173 197.38 78.1173Z" fill="white" stroke="black" stroke-miterlimit="10"/>
<path d="M216.509 73.833C216.509 76.2243 214.616 78.1173 212.225 78.1173C209.834 78.1173 207.941 76.2243 207.941 73.833C207.941 71.4418 209.834 69.5487 212.225 69.5487C214.517 69.5487 216.509 71.4418 216.509 73.833Z" fill="white" stroke="black" stroke-miterlimit="10"/>
</svg>
