<svg width="16" height="12" viewBox="0 0 16 12" fill="none" xmlns="http://www.w3.org/2000/svg">
<mask id="mask0" mask-type="alpha" maskUnits="userSpaceOnUse" x="0" y="0" width="16" height="12">
<path fill-rule="evenodd" clip-rule="evenodd" d="M5.53252 5.91052C6.96286 5.91052 8.12641 4.72713 8.12641 3.2724C8.12641 1.81766 6.96286 0.634277 5.53252 0.634277C4.10218 0.634277 2.93863 1.81766 2.93863 3.2724C2.93863 4.72713 4.10218 5.91052 5.53252 5.91052ZM0.344727 9.86772C0.344727 8.11148 3.79831 7.2296 5.53251 7.2296C7.26671 7.2296 10.7203 8.11148 10.7203 9.86772V11.1868H0.344727V9.86772ZM5.53253 8.7371C4.20594 8.7371 2.70148 9.24211 2.07895 9.67929H8.9861C8.36357 9.24211 6.85912 8.7371 5.53253 8.7371ZM6.64417 3.27241C6.64417 2.6468 6.14762 2.14178 5.5325 2.14178C4.91738 2.14178 4.42083 2.6468 4.42083 3.27241C4.42083 3.89802 4.91738 4.40303 5.5325 4.40303C6.14762 4.40303 6.64417 3.89802 6.64417 3.27241ZM10.75 7.27484C11.6097 7.90799 12.2025 8.75219 12.2025 9.86773V11.1868H15.167V9.86773C15.167 8.34516 12.5731 7.47835 10.75 7.27484ZM12.573 3.2724C12.573 4.72713 11.4095 5.91052 9.97915 5.91052C9.57895 5.91052 9.20839 5.81253 8.86748 5.64671C9.33438 4.97587 9.60859 4.15428 9.60859 3.2724C9.60859 2.39051 9.33438 1.56893 8.86748 0.898089C9.20839 0.732265 9.57895 0.634277 9.97915 0.634277C11.4095 0.634277 12.573 1.81766 12.573 3.2724Z" fill="white"/>
</mask>
<g mask="url(#mask0)">
<rect x="-1.55566" y="-3.58203" width="18.6667" height="18.985" fill="#66788A"/>
</g>
</svg>
