<svg width="301" height="218" viewBox="0 0 301 218" fill="none" xmlns="http://www.w3.org/2000/svg">
<path d="M244.515 192.933H14.346C6.43461 192.933 0 186.498 0 178.587V14.346C0 6.4346 6.43461 0 14.346 0H244.515C252.426 0 258.861 6.4346 258.861 14.346V178.587C258.966 186.498 252.532 192.933 244.515 192.933Z" fill="#EEDA36"/>
<path d="M132.595 217.089H110.021C106.013 217.089 103.27 212.975 104.852 209.283L116.983 181.224L127.426 157.173C129.431 152.637 135.76 152.637 137.764 157.173L148.207 181.224L160.338 209.283C161.92 212.975 159.177 217.089 155.169 217.089H132.595Z" fill="#EEDA36"/>
<path d="M139.452 171.203C139.452 174.895 136.498 177.848 132.806 177.848C129.114 177.848 126.16 174.895 126.16 171.203C126.16 167.511 129.114 164.557 132.806 164.557C136.498 164.557 139.452 167.616 139.452 171.203Z" stroke="black" stroke-miterlimit="10"/>
<path d="M241.139 156.646H22.0462C18.4597 156.646 15.5061 153.692 15.5061 150.105V21.4135C15.5061 17.827 18.4597 14.8734 22.0462 14.8734H241.139C244.726 14.8734 247.679 17.827 247.679 21.4135V150.105C247.679 153.692 244.726 156.646 241.139 156.646Z" fill="white" stroke="black" stroke-miterlimit="10"/>
<path d="M44.7256 139.663H175C182.806 139.663 189.135 133.333 189.135 125.527V34.1773C189.135 26.3713 182.806 20.0422 175 20.0422H44.7256C36.9197 20.0422 30.5906 26.3713 30.5906 34.1773V125.527C30.5906 133.333 36.9197 139.663 44.7256 139.663Z" fill="white" stroke="black" stroke-miterlimit="10"/>
<path d="M46.0968 30.9072C46.0968 32.384 44.9364 33.6498 43.4596 33.6498C41.9828 33.6498 40.8225 32.4894 40.8225 30.9072C40.8225 29.4304 41.9828 28.1646 43.4596 28.1646C44.8309 28.1646 46.0968 29.4304 46.0968 30.9072Z" fill="#DB7294" stroke="black" stroke-miterlimit="10"/>
<path d="M56.7508 30.9072C56.7508 32.384 55.5905 33.6498 54.1137 33.6498C52.6369 33.6498 51.4766 32.4894 51.4766 30.9072C51.4766 29.4304 52.6369 28.1646 54.1137 28.1646C55.485 28.1646 56.7508 29.4304 56.7508 30.9072Z" fill="#EEDA36" stroke="black" stroke-miterlimit="10"/>
<path d="M67.4048 30.9072C67.4048 32.384 66.2444 33.6498 64.7676 33.6498C63.2908 33.6498 62.1305 32.4894 62.1305 30.9072C62.1305 29.4304 63.2908 28.1646 64.7676 28.1646C66.2444 28.1646 67.4048 29.4304 67.4048 30.9072Z" fill="#672ED6" stroke="black" stroke-miterlimit="10"/>
<path d="M30.907 40.4008H189.24" stroke="black" stroke-miterlimit="10"/>
<path d="M180.168 90.6118H150.633V109.072H180.168V90.6118Z" stroke="#9E88E5" stroke-miterlimit="10"/>
<path d="M154.324 95.4641H175.738" stroke="#9E88E5" stroke-miterlimit="10"/>
<path d="M154.324 98.8396H175.738" stroke="#9E88E5" stroke-miterlimit="10"/>
<path d="M154.324 102.11H175.738" stroke="#9E88E5" stroke-miterlimit="10"/>
<path d="M115.611 71.7299V50.1055C103.691 50.1055 93.9868 59.8101 93.9868 71.7299C93.9868 83.6498 103.691 93.3544 115.611 93.3544C127.531 93.3544 137.236 83.6498 137.236 71.7299C137.236 70.1477 137.025 68.6709 136.708 67.1941L115.611 71.7299Z" fill="#DB7294"/>
<path d="M139.451 63.2911C137.341 53.5865 128.692 46.2025 118.354 46.2025V67.827L139.451 63.2911Z" fill="#E4B0C8"/>
<path d="M74.9997 51.3713H49.0503C47.9955 51.3713 47.2571 50.5274 47.2571 49.578C47.2571 48.5232 48.1009 47.7848 49.0503 47.7848H74.9997C76.0545 47.7848 76.7929 48.6287 76.7929 49.578C76.7929 50.5274 76.0545 51.3713 74.9997 51.3713Z" stroke="#9E88E5" stroke-miterlimit="10"/>
<path d="M49.156 54.0084H74.2615" stroke="#9E88E5" stroke-miterlimit="10"/>
<path d="M49.156 57.3839H74.2615" stroke="#9E88E5" stroke-miterlimit="10"/>
<path d="M49.156 60.7595H74.2615" stroke="#9E88E5" stroke-miterlimit="10"/>
<path d="M78.6919 50.1053H88.1856L101.793 62.5526" stroke="#9E88E5" stroke-miterlimit="10"/>
<path d="M178.375 53.481H152.426C151.371 53.481 150.633 52.6371 150.633 51.6878C150.633 50.6329 151.476 49.8945 152.426 49.8945H178.375C179.43 49.8945 180.168 50.7384 180.168 51.6878C180.168 52.6371 179.43 53.481 178.375 53.481Z" stroke="#9E88E5" stroke-miterlimit="10"/>
<path d="M152.531 56.1182H177.637" stroke="#9E88E5" stroke-miterlimit="10"/>
<path d="M152.531 59.4937H177.637" stroke="#9E88E5" stroke-miterlimit="10"/>
<path d="M152.531 62.8693H177.637" stroke="#9E88E5" stroke-miterlimit="10"/>
<path d="M152.531 66.3502H177.637" stroke="#9E88E5" stroke-miterlimit="10"/>
<path d="M152.531 69.7257H177.637" stroke="#9E88E5" stroke-miterlimit="10"/>
<path d="M152.531 72.9958H177.637" stroke="#9E88E5" stroke-miterlimit="10"/>
<path d="M131.434 60.1265L140.612 52.6371H148.734" stroke="#9E88E5" stroke-miterlimit="10"/>
<path d="M51.0544 80.2744V122.785H115.295" stroke="#9E88E5" stroke-miterlimit="10"/>
<path d="M51.0544 80.4853H48.7338L49.8941 78.4811L51.0544 76.5824L52.2148 78.4811L53.3751 80.4853H51.0544Z" fill="#9E88E5"/>
<path d="M114.662 122.785V120.464L116.561 121.625L118.565 122.785L116.561 123.84L114.662 125V122.785Z" fill="#9E88E5"/>
<path d="M45.6748 119.198L61.3921 105.169L74.1558 118.987L90.4005 89.2406L102.32 118.249" stroke="#EEDA36" stroke-miterlimit="10"/>
<path d="M40.2948 98.3124C40.2948 98.3124 40.8222 97.6795 41.7716 96.8356" stroke="#DB7294" stroke-miterlimit="10"/>
<path d="M45.0416 94.1985C49.1556 91.0339 55.1682 87.8694 59.0711 91.5613C65.4003 97.6795 63.9235 102.321 76.5817 99.5782C88.5015 97.0466 103.164 100.528 107.489 120.886" stroke="#DB7294" stroke-miterlimit="10" stroke-dasharray="3.85 3.85"/>
<path d="M107.7 122.996C107.805 123.629 107.911 124.367 108.016 125.106" stroke="#DB7294" stroke-miterlimit="10"/>
<path d="M240.295 74.3671C240.295 74.3671 279.324 89.6624 300 155.591L273.523 168.671L254.008 118.776L240.295 74.3671Z" fill="#672ED6" stroke="black" stroke-miterlimit="10"/>
<path d="M123.946 87.3417C123.946 87.3417 117.3 83.1223 118.144 81.0126C118.988 79.0084 120.887 80.1687 120.887 80.1687C120.887 80.1687 118.882 78.9029 119.832 77.6371C120.781 76.2658 121.941 76.7932 121.941 76.7932C121.941 76.7932 120.57 74.6835 121.941 73.9451C123.313 73.2067 125.317 73.6286 125.317 73.6286C125.317 73.6286 124.578 71.9409 124.578 71.308C124.578 70.675 125.528 69.4092 128.376 70.0421C131.224 70.675 137.237 74.0506 139.346 75.1054C141.351 76.1603 143.671 78.5864 143.777 77.7425C143.882 77.0042 144.726 71.9409 146.625 70.5695C148.524 69.0928 149.368 68.8818 149.684 71.6244C150 74.367 149.895 82.0674 153.692 87.7636C157.384 93.4598 158.756 97.2573 162.659 101.793C166.562 106.435 168.46 108.755 168.46 108.755L150.633 123.312C150.633 123.312 133.334 97.2573 133.228 97.1518C133.017 96.9409 127.321 89.9788 123.946 87.3417Z" fill="white"/>
<path d="M120.359 80.0632C120.359 80.0632 118.143 76.4767 122.257 76.8986C126.371 77.3206 132.067 81.2235 134.704 83.2278" stroke="black" stroke-miterlimit="10"/>
<path d="M139.24 91.3501C139.24 91.3501 137.763 86.7087 144.304 84.81C144.304 84.81 141.772 74.9999 146.519 70.5695C151.266 66.2446 148.734 77.426 151.898 84.2826C155.063 91.1391 158.649 97.7847 162.131 101.371C165.506 104.958 168.46 108.861 168.46 108.861L150.422 123.312C150.422 123.312 144.304 113.924 134.81 99.367C125.316 84.81 116.877 84.4935 118.143 80.907C119.725 76.4767 130.907 86.8142 130.907 86.8142" stroke="black" stroke-miterlimit="10"/>
<path d="M122.257 76.8987C122.257 76.8987 120.147 74.2616 122.785 73.6287C123.207 73.5232 123.839 73.5232 124.472 73.6287C127.742 74.0506 133.122 76.7932 137.131 79.8523" stroke="black" stroke-miterlimit="10"/>
<path d="M143.67 78.5864C143.67 78.5864 135.864 71.3079 127.004 70.1475C123.839 69.7256 123.945 72.8902 127.109 74.2615" stroke="black" stroke-miterlimit="10"/>
<path d="M181.329 117.932C178.797 116.245 176.266 114.03 173.839 111.603C165.823 103.797 159.071 94.1983 159.071 94.1983L139.451 110.97C139.451 110.97 160.865 144.198 173.628 148.312C186.498 152.426 215.823 119.093 215.823 119.093L218.143 75.2109C218.143 75.2109 212.658 78.1645 208.228 82.173C200.949 88.713 188.291 100.422 173.839 111.603" fill="#672ED6"/>
<path d="M181.329 117.932C178.797 116.245 176.266 114.03 173.839 111.603C165.823 103.797 159.071 94.1983 159.071 94.1983L139.451 110.97C139.451 110.97 160.865 144.198 173.628 148.312C186.498 152.426 215.823 119.093 215.823 119.093L218.143 75.2109C218.143 75.2109 212.658 78.1645 208.228 82.173C200.949 88.713 188.291 100.422 173.839 111.603" stroke="black" stroke-miterlimit="10"/>
<path d="M165.4 102.426C161.603 97.7847 158.966 94.1982 158.966 94.1982L139.345 110.97C139.345 110.97 141.877 114.873 145.569 120.042L165.4 102.426Z" fill="white" stroke="black" stroke-miterlimit="10"/>
<path d="M160.653 100.633C160.653 101.371 160.02 102.004 159.282 102.004C158.544 102.004 157.911 101.371 157.911 100.633C157.911 99.8945 158.544 99.2616 159.282 99.2616C160.02 99.2616 160.653 99.8945 160.653 100.633Z" fill="white" stroke="black" stroke-miterlimit="10"/>
<path d="M271.413 158.544C271.413 158.228 271.413 150.738 271.413 150.316C271.413 107.067 253.059 72.0464 230.274 72.0464C207.489 72.0464 189.135 107.067 189.135 150.316C189.135 150.633 189.135 158.122 189.135 158.544H271.413Z" fill="#672ED6"/>
<path d="M230.168 91.5612V158.544" stroke="black" stroke-miterlimit="10"/>
<path d="M230.274 92.2995L246.096 78.059C241.244 74.1561 235.864 72.0464 230.274 72.0464C224.894 72.0464 219.198 74.4725 214.451 78.059L230.274 92.2995Z" fill="white" stroke="black" stroke-miterlimit="10"/>
<path d="M195.147 109.81C191.35 121.624 189.24 135.443 189.24 150.316C189.24 150.633 189.24 158.122 189.24 158.544H271.413C271.413 158.228 271.413 150.738 271.413 150.316C271.413 135.127 269.198 120.991 265.295 109.072" stroke="black" stroke-miterlimit="10"/>
<path d="M246.096 78.059C241.244 74.1561 235.864 72.0464 230.274 72.0464C224.683 72.0464 219.303 74.1561 214.451 78.059" stroke="black" stroke-miterlimit="10"/>
<path d="M241.139 156.646H22.0462C18.4597 156.646 15.5061 153.692 15.5061 150.105V21.4135C15.5061 17.827 18.4597 14.8734 22.0462 14.8734H241.139C244.726 14.8734 247.679 17.827 247.679 21.4135V150.105C247.679 153.692 244.726 156.646 241.139 156.646Z" stroke="black" stroke-miterlimit="10"/>
<path d="M246.625 82.2784L237.869 69.1983C236.182 66.6666 232.912 65.7172 230.169 66.6666C227.426 65.6118 224.156 66.5611 222.468 69.1983L213.713 82.2784C211.709 85.232 212.553 89.3459 215.506 91.3502L216.772 92.194C219.726 94.1982 223.84 93.3544 225.844 90.4008L230.169 83.8607L234.494 90.4008C236.498 93.3544 240.506 94.1982 243.566 92.194L244.831 91.3502C247.785 89.3459 248.629 85.232 246.625 82.2784Z" fill="#FEFEFF" stroke="black" stroke-miterlimit="10"/>
<path d="M231.54 80.6961C231.54 81.4345 231.013 81.9619 230.274 81.9619C229.536 81.9619 229.009 81.4345 229.009 80.6961C229.009 79.9577 229.536 79.4303 230.274 79.4303C231.013 79.4303 231.54 79.9577 231.54 80.6961Z" fill="#FEFEFF" stroke="black" stroke-miterlimit="10"/>
<path d="M247.574 49.6835C247.574 53.3755 244.515 56.4346 240.717 56.4346C236.92 56.4346 233.861 53.3755 233.861 49.6835C233.861 45.9916 236.92 42.9325 240.717 42.9325C244.515 42.9325 247.574 45.9916 247.574 49.6835Z" stroke="black" stroke-width="2" stroke-miterlimit="10"/>
<path d="M217.827 28.6919H226.371C232.067 28.6919 236.709 33.9662 236.709 40.5062V53.7974C236.709 54.2193 236.709 54.5358 236.709 54.9577C236.814 55.3797 236.814 55.8016 236.814 56.2235V64.3459V64.7678V72.8902C236.814 75.8438 234.388 78.27 231.434 78.27H228.059C225.105 78.27 222.679 75.8438 222.679 72.8902V65.7172H217.721C212.025 65.7172 207.384 60.443 207.384 53.9029V40.5062C207.489 33.9662 212.131 28.6919 217.827 28.6919Z" fill="white" stroke="black" stroke-miterlimit="10"/>
<path d="M234.494 49.4727L232.911 39.0296C232.911 39.0296 204.114 42.6161 194.831 28.6921C185.548 14.768 195.253 9.17732 200 10.0212C204.747 10.7596 210.337 17.6161 210.337 17.6161C210.337 17.6161 205.907 11.6035 210.337 10.6541C214.768 9.70474 219.62 14.2406 222.152 18.9874C222.152 18.9874 241.139 17.1942 247.574 28.6921C254.008 40.19 248.839 48.3123 237.025 60.1267L236.287 53.4811L234.494 49.4727Z" fill="black"/>
<path d="M267.51 16.1393C267.51 22.8903 262.025 28.2701 255.38 28.2701C248.629 28.2701 243.249 22.7848 243.249 16.1393C243.249 9.3882 248.734 4.00845 255.38 4.00845C262.025 3.90297 267.51 9.3882 267.51 16.1393Z" fill="black"/>
<path d="M231.962 51.4767C231.962 54.2193 229.747 56.4345 227.004 56.4345C224.262 56.4345 222.046 54.2193 222.046 51.4767C222.046 48.7341 224.262 46.5189 227.004 46.5189C229.747 46.6244 231.962 48.7341 231.962 51.4767Z" fill="#E4B0C8"/>
<path d="M208.861 47.5739C208.544 47.5739 208.228 47.5739 208.017 47.6793V52.7426C208.017 53.481 207.911 54.2194 208.122 54.9578C208.333 54.9578 208.65 55.0633 208.966 55.0633C211.076 55.0633 212.658 53.3755 212.658 51.3713C212.553 49.2616 210.865 47.5739 208.861 47.5739Z" fill="#E4B0C8"/>
<path d="M223.101 44.6203C223.101 45.5696 222.363 46.4135 221.308 46.4135C220.359 46.4135 219.515 45.6751 219.515 44.6203C219.515 43.6709 220.253 42.827 221.308 42.827C222.258 42.9325 223.101 43.6709 223.101 44.6203Z" fill="#141414"/>
<path d="M211.603 44.4097C211.603 45.2535 210.971 45.8864 210.127 45.8864C209.283 45.8864 208.65 45.2535 208.65 44.4097C208.65 43.5658 209.283 42.9329 210.127 42.9329C210.971 42.9329 211.603 43.5658 211.603 44.4097Z" fill="#141414"/>
<path d="M213.291 51.5823C213.291 51.5823 214.135 54.1139 216.034 54.3249C217.933 54.5359 219.304 52.4262 219.409 50.8439L213.291 51.5823Z" fill="#F7F6F6"/>
<path d="M212.764 51.6877C213.08 52.6371 213.713 53.5865 214.557 54.2194C216.034 55.2742 217.933 54.7468 218.988 53.481C219.621 52.7426 220.042 51.7932 220.148 50.7384C220.148 50.4219 219.831 50.1055 219.515 50.1055C217.722 50.3164 215.929 50.5274 214.135 50.7384C213.924 50.7384 213.608 50.8439 213.397 50.8439C213.08 50.8439 212.764 51.0548 212.764 51.4768C212.764 51.7932 213.08 52.1097 213.397 52.1097C215.19 51.8987 216.983 51.6877 218.777 51.4768C218.988 51.4768 219.304 51.3713 219.515 51.3713C219.304 51.1603 219.093 50.9493 218.882 50.7384C218.777 51.8987 217.933 53.27 216.772 53.5865C215.612 53.9029 214.768 52.9536 214.346 52.1097C214.241 51.8987 214.135 51.6877 214.03 51.4768C214.03 51.3713 214.03 51.5823 214.03 51.4768C214.03 51.4768 214.03 51.4768 214.03 51.3713C214.03 51.3713 214.03 51.3713 214.03 51.2658C213.608 50.6329 212.447 50.9493 212.764 51.6877Z" fill="#141414"/>
<path d="M230.169 43.5653C230.169 47.3627 227.426 50.4218 224.051 50.4218C220.675 50.4218 217.933 47.3627 217.933 43.5653C217.933 39.7678 220.675 36.7087 224.051 36.7087C227.426 36.7087 230.169 39.8733 230.169 43.5653Z" stroke="#672ED6" stroke-miterlimit="10"/>
<path d="M208.861 48.8396C211.657 48.8396 213.924 46.1004 213.924 42.7214C213.924 39.3425 211.657 36.6033 208.861 36.6033C206.064 36.6033 203.797 39.3425 203.797 42.7214C203.797 46.1004 206.064 48.8396 208.861 48.8396Z" stroke="#672ED6" stroke-miterlimit="10"/>
<path d="M215.823 42.9325V48.8397L212.764 46.9409L215.823 42.9325Z" fill="#D96980"/>
<path d="M213.713 44.6202C213.713 44.6202 216.139 43.5654 217.933 45.0422" stroke="#672ED6" stroke-miterlimit="10"/>
<path d="M247.574 49.6835C247.574 53.3755 244.515 56.4346 240.717 56.4346C236.92 56.4346 233.861 53.3755 233.861 49.6835C233.861 45.9916 236.92 42.9325 240.717 42.9325C244.515 42.9325 247.574 45.9916 247.574 49.6835Z" fill="white"/>
<path d="M237.764 50.5274C237.764 50.4219 237.764 50.2109 237.764 50.1054C237.764 49.9999 237.764 49.9999 237.764 49.8945V49.789C237.764 49.578 237.764 49.9999 237.764 49.789C237.764 49.578 237.869 49.367 237.869 49.2615C237.869 49.1561 237.975 49.0506 237.975 48.9451C237.975 48.8396 237.975 48.8396 238.08 48.7341C238.08 48.7341 238.08 48.7341 238.08 48.6286C238.08 48.5231 238.08 48.6286 238.08 48.7341C238.186 48.5231 238.291 48.3122 238.397 48.1012C238.397 48.1012 238.397 48.1012 238.397 47.9957C238.502 47.8902 238.502 47.9957 238.397 47.9957L238.502 47.8902C238.608 47.7847 238.713 47.6793 238.819 47.5738C238.819 47.5738 238.819 47.5738 238.924 47.5738C239.03 47.4683 239.03 47.5738 238.924 47.5738L239.03 47.4683C239.135 47.3628 239.241 47.3628 239.452 47.2573C239.452 47.2573 239.557 47.1518 239.452 47.2573C239.346 47.2573 239.452 47.2573 239.557 47.2573C239.663 47.2573 239.768 47.1518 239.768 47.1518C239.874 47.1518 239.979 47.1518 240.085 47.0464H240.19H240.295C240.401 47.0464 240.401 47.0464 240.295 47.0464C240.401 47.0464 240.506 47.0464 240.612 47.0464C240.717 47.0464 240.823 47.0464 240.928 47.0464C241.139 47.0464 241.456 47.0464 241.667 47.0464C242.089 47.0464 242.405 46.7299 242.405 46.308C242.405 45.886 242.089 45.675 241.667 45.5696C240.19 45.4641 238.608 45.7805 237.658 46.9409C237.025 47.7847 236.709 48.7341 236.604 49.789C236.604 49.9999 236.604 50.2109 236.604 50.4219C236.604 50.8438 236.92 51.1603 237.342 51.1603C237.447 51.2658 237.764 50.9493 237.764 50.5274Z" fill="#090909"/>
</svg>
